<svg xmlns="http://www.w3.org/2000/svg" xmlns:xlink="http://www.w3.org/1999/xlink" width="790" height="385.65"><rect width="790" height="385.65" rx="5" ry="5" class="a"/><svg y="0%" x="0%"><circle cx="20" cy="20" r="6" fill="#ff5f58"/><circle cx="40" cy="20" r="6" fill="#ffbd2e"/><circle cx="60" cy="20" r="6" fill="#18c132"/></svg><svg height="325.65" viewBox="0 0 75 32.565" width="750" x="15" xmlns="http://www.w3.org/2000/svg" xmlns:xlink="http://www.w3.org/1999/xlink" y="50"><style>@keyframes r{0%{transform:translateX(0)}16%{transform:translateX(-75px)}22.1%{transform:translateX(-150px)}22.3%{transform:translateX(-300px)}22.4%{transform:translateX(-675px)}23.3%{transform:translateX(-750px)}26.9%{transform:translateX(-825px)}27.8%{transform:translateX(-900px)}31.3%{transform:translateX(-975px)}32.6%{transform:translateX(-1050px)}34.7%{transform:translateX(-1125px)}35.7%{transform:translateX(-1200px)}37.4%{transform:translateX(-1275px)}39.1%{transform:translateX(-1350px)}41.1%{transform:translateX(-1425px)}42%{transform:translateX(-1500px)}47%{transform:translateX(-1650px)}47.1%{transform:translateX(-1800px)}50.2%{transform:translateX(-2025px)}51%{transform:translateX(-2175px)}54.5%{transform:translateX(-2325px)}54.6%{transform:translateX(-2400px)}54.7%{transform:translateX(-2550px)}54.8%{transform:translateX(-2850px)}55.7%{transform:translateX(-2925px)}63%{transform:translateX(-3000px)}63.9%{transform:translateX(-3075px)}66.4%{transform:translateX(-3150px)}67.8%{transform:translateX(-3225px)}69.2%{transform:translateX(-3300px)}70.3%{transform:translateX(-3375px)}71.9%{transform:translateX(-3450px)}72.8%{transform:translateX(-3525px)}73.7%{transform:translateX(-3600px)}75.3%{transform:translateX(-3675px)}81.2%{transform:translateX(-3750px)}81.3%{transform:translateX(-3900px)}81.4%{transform:translateX(-3975px)}84.4%{transform:translateX(-4200px)}85.1%{transform:translateX(-4350px)}86.2%{transform:translateX(-4425px)}86.3%{transform:translateX(-4575px)}86.4%{transform:translateX(-4650px)}86.5%{transform:translateX(-4875px)}86.6%{transform:translateX(-5100px)}87.5%{transform:translateX(-5175px)}to{transform:translateX(-5250px)}}.a{fill:#282d35}.f{fill:#71bef2}.g,.h,.i,.j,.k{fill:#e88388;font-weight:700}.h,.i,.j,.k{fill:#dbab79}.i,.j,.k{fill:#a8cc8c}.j,.k{fill:#d290e3}.k{fill:#b9bfca}.l{fill:#b9c0cb;text-decoration:underline}.m{fill:#a8cc8c}.n,.o{fill:#b9c0cb}.o{font-weight:700}</style><g font-size="1.67" font-family="Monaco,Consolas,Menlo,'Bitstream Vera Sans Mono','Powerline Symbols',monospace"><defs><symbol id="1"><text y="1.67" class="f">~/P/p/m/p/typescript</text></symbol><symbol id="2"><text y="1.67" class="f">~/P/p/m/p/typescript</text><text x="21.042" y="1.67" class="g">❯</text><text x="22.044" y="1.67" class="h">❯</text><text x="23.046" y="1.67" class="i">❯</text></symbol><symbol id="3"><text y="1.67" class="f">~/P/p/m/p/typescript</text><text x="21.042" y="1.67" class="g">❯</text><text x="22.044" y="1.67" class="h">❯</text><text x="23.046" y="1.67" class="i">❯</text><text x="64.128" y="1.67" class="i">master</text><text x="71.142" y="1.67" class="j">⬆</text><text x="73.146" y="1.67" class="k">◼</text></symbol><symbol id="4"><text y="1.67" class="f">~/P/p/m/p/typescript</text><text x="21.042" y="1.67" class="g">❯</text><text x="22.044" y="1.67" class="h">❯</text><text x="23.046" y="1.67" class="i">❯</text><text x="25.05" y="1.67" class="l">y</text><text x="64.128" y="1.67" class="i">master</text><text x="71.142" y="1.67" class="j">⬆</text><text x="73.146" y="1.67" class="k">◼</text></symbol><symbol id="5"><text y="1.67" class="f">~/P/p/m/p/typescript</text><text x="21.042" y="1.67" class="g">❯</text><text x="22.044" y="1.67" class="h">❯</text><text x="23.046" y="1.67" class="i">❯</text><text x="25.05" y="1.67" class="l">ya</text><text x="64.128" y="1.67" class="i">master</text><text x="71.142" y="1.67" class="j">⬆</text><text x="73.146" y="1.67" class="k">◼</text></symbol><symbol id="6"><text y="1.67" class="f">~/P/p/m/p/typescript</text><text x="21.042" y="1.67" class="g">❯</text><text x="22.044" y="1.67" class="h">❯</text><text x="23.046" y="1.67" class="i">❯</text><text x="25.05" y="1.67" class="l">yar</text><text x="64.128" y="1.67" class="i">master</text><text x="71.142" y="1.67" class="j">⬆</text><text x="73.146" y="1.67" class="k">◼</text></symbol><symbol id="7"><text y="1.67" class="f">~/P/p/m/p/typescript</text><text x="21.042" y="1.67" class="g">❯</text><text x="22.044" y="1.67" class="h">❯</text><text x="23.046" y="1.67" class="i">❯</text><text x="25.05" y="1.67" class="m">yarn</text><text x="64.128" y="1.67" class="i">master</text><text x="71.142" y="1.67" class="j">⬆</text><text x="73.146" y="1.67" class="k">◼</text></symbol><symbol id="8"><text y="1.67" class="f">~/P/p/m/p/typescript</text><text x="21.042" y="1.67" class="g">❯</text><text x="22.044" y="1.67" class="h">❯</text><text x="23.046" y="1.67" class="i">❯</text><text x="25.05" y="1.67" class="m">yarn</text><text x="30.06" y="1.67" class="n">build</text><text x="64.128" y="1.67" class="i">master</text><text x="71.142" y="1.67" class="j">⬆</text><text x="73.146" y="1.67" class="k">◼</text></symbol><symbol id="9"><text y="1.67" class="o">yarn</text><text x="5.01" y="1.67" class="o">run</text><text x="9.018" y="1.67" class="o">v1.12.3</text></symbol><symbol id="10"><text y="1.67" class="n">$</text><text x="2.004" y="1.67" class="n">tsc</text><text x="6.012" y="1.67" class="n">--build</text></symbol><symbol id="11"><text y="1.67" class="n">✨</text><text x="3.006" y="1.67" class="n">Done</text><text x="8.016" y="1.67" class="n">in</text><text x="11.022" y="1.67" class="n">0.42s.</text></symbol><symbol id="12"><text y="1.67" class="f">~/P/p/m/p/typescript</text><text x="21.042" y="1.67" class="g">❯</text><text x="22.044" y="1.67" class="h">❯</text><text x="23.046" y="1.67" class="i">❯</text><text x="25.05" y="1.67" class="m">yarn</text><text x="30.06" y="1.67" class="n">start</text><text x="64.128" y="1.67" class="i">master</text><text x="71.142" y="1.67" class="j">⬆</text><text x="73.146" y="1.67" class="k">◼</text></symbol><symbol id="13"><text y="1.67" class="n">$</text><text x="2.004" y="1.67" class="n">node</text><text x="7.014" y="1.67" class="n">dist/src/app/index.js</text></symbol><symbol id="14"><text y="1.67" class="n">Hello,</text><text x="7.014" y="1.67" class="n">Everyone</text></symbol><symbol id="15"><text y="1.67" class="n">✨</text><text x="3.006" y="1.67" class="n">Done</text><text x="8.016" y="1.67" class="n">in</text><text x="11.022" y="1.67" class="n">0.18s.</text></symbol><symbol id="a"><path fill="transparent" d="M0 0h75v16H0z"/></symbol><symbol id="b"><path fill="#6f7683" d="M0 0h1.102v2.171H0z"/></symbol></defs><path class="a" d="M0 0h75v32.565H0z"/><g style="animation-duration:9.569696s;animation-iteration-count:infinite;animation-name:r;animation-timing-function:steps(1,end)"><svg width="5325"><svg><use xlink:href="#a"/><use xlink:href="#b" x="-.004"/></svg><svg x="75"><use xlink:href="#a"/><use xlink:href="#b" x="-.004"/></svg><svg x="150"><use xlink:href="#a"/><use xlink:href="#b" x="-.004"/></svg><svg x="225"><use xlink:href="#a"/><use xlink:href="#b" x="-.004"/></svg><svg x="300"><use xlink:href="#a"/><use xlink:href="#b" x="-.004"/></svg><svg x="375"><use xlink:href="#a"/><use xlink:href="#b" x="20.996"/><use xlink:href="#1"/></svg><svg x="450"><use xlink:href="#a"/><use xlink:href="#b" x="20.996"/><use xlink:href="#1"/></svg><svg x="525"><use xlink:href="#a"/><use xlink:href="#b" x="20.996"/><use xlink:href="#1"/></svg><svg x="600"><use xlink:href="#a"/><use xlink:href="#b" x="24.996"/><use xlink:href="#2"/></svg><svg x="675"><use xlink:href="#a"/><use xlink:href="#b" x="24.996"/><use xlink:href="#2"/></svg><svg x="750"><use xlink:href="#a"/><use xlink:href="#b" x="24.996"/><use xlink:href="#3"/></svg><svg x="825"><use xlink:href="#a"/><use xlink:href="#b" x="25.996"/><use xlink:href="#4"/></svg><svg x="900"><use xlink:href="#a"/><use xlink:href="#b" x="26.996"/><use xlink:href="#5"/></svg><svg x="975"><use xlink:href="#a"/><use xlink:href="#b" x="27.996"/><use xlink:href="#6"/></svg><svg x="1050"><use xlink:href="#a"/><use xlink:href="#b" x="28.996"/><use xlink:href="#7"/></svg><svg x="1125"><use xlink:href="#a"/><use xlink:href="#b" x="29.996"/><use xlink:href="#7"/></svg><svg x="1200"><use xlink:href="#a"/><use xlink:href="#b" x="30.996"/><text y="1.67" class="f">~/P/p/m/p/typescript</text><text x="21.042" y="1.67" class="g">❯</text><text x="22.044" y="1.67" class="h">❯</text><text x="23.046" y="1.67" class="i">❯</text><text x="25.05" y="1.67" class="m">yarn</text><text x="30.06" y="1.67" class="n">b</text><text x="64.128" y="1.67" class="i">master</text><text x="71.142" y="1.67" class="j">⬆</text><text x="73.146" y="1.67" class="k">◼</text></svg><svg x="1275"><use xlink:href="#a"/><use xlink:href="#b" x="31.996"/><text y="1.67" class="f">~/P/p/m/p/typescript</text><text x="21.042" y="1.67" class="g">❯</text><text x="22.044" y="1.67" class="h">❯</text><text x="23.046" y="1.67" class="i">❯</text><text x="25.05" y="1.67" class="m">yarn</text><text x="30.06" y="1.67" class="n">bu</text><text x="64.128" y="1.67" class="i">master</text><text x="71.142" y="1.67" class="j">⬆</text><text x="73.146" y="1.67" class="k">◼</text></svg><svg x="1350"><use xlink:href="#a"/><use xlink:href="#b" x="32.996"/><text y="1.67" class="f">~/P/p/m/p/typescript</text><text x="21.042" y="1.67" class="g">❯</text><text x="22.044" y="1.67" class="h">❯</text><text x="23.046" y="1.67" class="i">❯</text><text x="25.05" y="1.67" class="m">yarn</text><text x="30.06" y="1.67" class="n">bui</text><text x="64.128" y="1.67" class="i">master</text><text x="71.142" y="1.67" class="j">⬆</text><text x="73.146" y="1.67" class="k">◼</text></svg><svg x="1425"><use xlink:href="#a"/><use xlink:href="#b" x="33.996"/><text y="1.67" class="f">~/P/p/m/p/typescript</text><text x="21.042" y="1.67" class="g">❯</text><text x="22.044" y="1.67" class="h">❯</text><text x="23.046" y="1.67" class="i">❯</text><text x="25.05" y="1.67" class="m">yarn</text><text x="30.06" y="1.67" class="n">buil</text><text x="64.128" y="1.67" class="i">master</text><text x="71.142" y="1.67" class="j">⬆</text><text x="73.146" y="1.67" class="k">◼</text></svg><svg x="1500"><use xlink:href="#a"/><use xlink:href="#b" x="34.996"/><use xlink:href="#8"/></svg><svg x="1575"><use xlink:href="#a"/><use xlink:href="#b" x="34.996"/><use xlink:href="#8"/></svg><svg x="1650"><use xlink:href="#a"/><use xlink:href="#b" x="34.996"/><use xlink:href="#8"/></svg><svg x="1725"><use xlink:href="#a"/><use xlink:href="#b" x="-.004" y="2.146"/><use xlink:href="#8"/></svg><svg x="1800"><use xlink:href="#a"/><use xlink:href="#b" x="-.004" y="2.146"/><use xlink:href="#8"/></svg><svg x="1875"><use xlink:href="#a"/><use xlink:href="#b" x="-.004" y="2.146"/><use xlink:href="#8"/></svg><svg x="1950"><use xlink:href="#a"/><use xlink:href="#b" x="-.004" y="2.146"/><use xlink:href="#8"/></svg><svg x="2025"><use xlink:href="#a"/><use xlink:href="#b" x="-.004" y="4.317"/><use xlink:href="#8"/><use xlink:href="#9" y="2.171"/></svg><svg x="2100"><use xlink:href="#a"/><use xlink:href="#b" x="-.004" y="4.317"/><use xlink:href="#8"/><use xlink:href="#9" y="2.171"/></svg><svg x="2175"><use xlink:href="#a"/><use xlink:href="#b" x="-.004" y="6.488"/><use xlink:href="#8"/><use xlink:href="#9" y="2.171"/><use xlink:href="#10" y="4.342"/></svg><svg x="2250"><use xlink:href="#a"/><use xlink:href="#b" x="-.004" y="6.488"/><use xlink:href="#8"/><use xlink:href="#9" y="2.171"/><use xlink:href="#10" y="4.342"/></svg><svg x="2325"><use xlink:href="#a"/><use xlink:href="#b" x="-.004" y="8.659"/><use xlink:href="#8"/><use xlink:href="#9" y="2.171"/><use xlink:href="#10" y="4.342"/><use xlink:href="#11" y="6.513"/></svg><svg x="2400"><use xlink:href="#a"/><use xlink:href="#b" x="-.004" y="8.659"/><use xlink:href="#8"/><use xlink:href="#9" y="2.171"/><use xlink:href="#10" y="4.342"/><use xlink:href="#11" y="6.513"/></svg><svg x="2475"><use xlink:href="#a"/><use xlink:href="#b" x="-.004" y="8.659"/><use xlink:href="#8"/><use xlink:href="#9" y="2.171"/><use xlink:href="#10" y="4.342"/><use xlink:href="#11" y="6.513"/></svg><svg x="2550"><use xlink:href="#a"/><use xlink:href="#b" x="-.004" y="8.659"/><use xlink:href="#8"/><use xlink:href="#9" y="2.171"/><use xlink:href="#10" y="4.342"/><use xlink:href="#11" y="6.513"/></svg><svg x="2625"><use xlink:href="#a"/><use xlink:href="#b" x="24.996" y="8.659"/><use xlink:href="#8"/><use xlink:href="#9" y="2.171"/><use xlink:href="#10" y="4.342"/><use xlink:href="#11" y="6.513"/><use xlink:href="#3" y="8.684"/></svg><svg x="2700"><use xlink:href="#a"/><use xlink:href="#b" x="24.996" y="8.659"/><use xlink:href="#8"/><use xlink:href="#9" y="2.171"/><use xlink:href="#10" y="4.342"/><use xlink:href="#11" y="6.513"/><use xlink:href="#3" y="8.684"/></svg><svg x="2775"><use xlink:href="#a"/><use xlink:href="#b" x="24.996" y="8.659"/><use xlink:href="#8"/><use xlink:href="#9" y="2.171"/><use xlink:href="#10" y="4.342"/><use xlink:href="#11" y="6.513"/><use xlink:href="#3" y="8.684"/></svg><svg x="2850"><use xlink:href="#a"/><use xlink:href="#b" x="24.996" y="8.659"/><use xlink:href="#8"/><use xlink:href="#9" y="2.171"/><use xlink:href="#10" y="4.342"/><use xlink:href="#11" y="6.513"/><use xlink:href="#3" y="8.684"/></svg><svg x="2925"><use xlink:href="#a"/><use xlink:href="#b" x="24.996" y="8.659"/><use xlink:href="#8"/><use xlink:href="#9" y="2.171"/><use xlink:href="#10" y="4.342"/><use xlink:href="#11" y="6.513"/><use xlink:href="#3" y="8.684"/></svg><svg x="3000"><use xlink:href="#a"/><use xlink:href="#b" x="25.996" y="8.659"/><use xlink:href="#8"/><use xlink:href="#9" y="2.171"/><use xlink:href="#10" y="4.342"/><use xlink:href="#11" y="6.513"/><use xlink:href="#4" y="8.684"/></svg><svg x="3075"><use xlink:href="#a"/><use xlink:href="#b" x="26.996" y="8.659"/><use xlink:href="#8"/><use xlink:href="#9" y="2.171"/><use xlink:href="#10" y="4.342"/><use xlink:href="#11" y="6.513"/><use xlink:href="#5" y="8.684"/></svg><svg x="3150"><use xlink:href="#a"/><use xlink:href="#b" x="27.996" y="8.659"/><use xlink:href="#8"/><use xlink:href="#9" y="2.171"/><use xlink:href="#10" y="4.342"/><use xlink:href="#11" y="6.513"/><use xlink:href="#6" y="8.684"/></svg><svg x="3225"><use xlink:href="#a"/><use xlink:href="#b" x="28.996" y="8.659"/><use xlink:href="#8"/><use xlink:href="#9" y="2.171"/><use xlink:href="#10" y="4.342"/><use xlink:href="#11" y="6.513"/><use xlink:href="#7" y="8.684"/></svg><svg x="3300"><use xlink:href="#a"/><use xlink:href="#b" x="29.996" y="8.659"/><use xlink:href="#8"/><use xlink:href="#9" y="2.171"/><use xlink:href="#10" y="4.342"/><use xlink:href="#11" y="6.513"/><use xlink:href="#7" y="8.684"/></svg><svg x="3375"><use xlink:href="#a"/><use xlink:href="#b" x="30.996" y="8.659"/><use xlink:href="#8"/><use xlink:href="#9" y="2.171"/><use xlink:href="#10" y="4.342"/><use xlink:href="#11" y="6.513"/><text y="10.354" class="f">~/P/p/m/p/typescript</text><text x="21.042" y="10.354" class="g">❯</text><text x="22.044" y="10.354" class="h">❯</text><text x="23.046" y="10.354" class="i">❯</text><text x="25.05" y="10.354" class="m">yarn</text><text x="30.06" y="10.354" class="l">s</text><text x="64.128" y="10.354" class="i">master</text><text x="71.142" y="10.354" class="j">⬆</text><text x="73.146" y="10.354" class="k">◼</text></svg><svg x="3450"><use xlink:href="#a"/><use xlink:href="#b" x="31.996" y="8.659"/><use xlink:href="#8"/><use xlink:href="#9" y="2.171"/><use xlink:href="#10" y="4.342"/><use xlink:href="#11" y="6.513"/><text y="10.354" class="f">~/P/p/m/p/typescript</text><text x="21.042" y="10.354" class="g">❯</text><text x="22.044" y="10.354" class="h">❯</text><text x="23.046" y="10.354" class="i">❯</text><text x="25.05" y="10.354" class="m">yarn</text><text x="30.06" y="10.354" class="n">st</text><text x="64.128" y="10.354" class="i">master</text><text x="71.142" y="10.354" class="j">⬆</text><text x="73.146" y="10.354" class="k">◼</text></svg><svg x="3525"><use xlink:href="#a"/><use xlink:href="#b" x="32.996" y="8.659"/><use xlink:href="#8"/><use xlink:href="#9" y="2.171"/><use xlink:href="#10" y="4.342"/><use xlink:href="#11" y="6.513"/><text y="10.354" class="f">~/P/p/m/p/typescript</text><text x="21.042" y="10.354" class="g">❯</text><text x="22.044" y="10.354" class="h">❯</text><text x="23.046" y="10.354" class="i">❯</text><text x="25.05" y="10.354" class="m">yarn</text><text x="30.06" y="10.354" class="n">sta</text><text x="64.128" y="10.354" class="i">master</text><text x="71.142" y="10.354" class="j">⬆</text><text x="73.146" y="10.354" class="k">◼</text></svg><svg x="3600"><use xlink:href="#a"/><use xlink:href="#b" x="33.996" y="8.659"/><use xlink:href="#8"/><use xlink:href="#9" y="2.171"/><use xlink:href="#10" y="4.342"/><use xlink:href="#11" y="6.513"/><text y="10.354" class="f">~/P/p/m/p/typescript</text><text x="21.042" y="10.354" class="g">❯</text><text x="22.044" y="10.354" class="h">❯</text><text x="23.046" y="10.354" class="i">❯</text><text x="25.05" y="10.354" class="m">yarn</text><text x="30.06" y="10.354" class="n">star</text><text x="64.128" y="10.354" class="i">master</text><text x="71.142" y="10.354" class="j">⬆</text><text x="73.146" y="10.354" class="k">◼</text></svg><svg x="3675"><use xlink:href="#a"/><use xlink:href="#b" x="34.996" y="8.659"/><use xlink:href="#8"/><use xlink:href="#9" y="2.171"/><use xlink:href="#10" y="4.342"/><use xlink:href="#11" y="6.513"/><use xlink:href="#12" y="8.684"/></svg><svg x="3750"><use xlink:href="#a"/><use xlink:href="#b" x="34.996" y="8.659"/><use xlink:href="#8"/><use xlink:href="#9" y="2.171"/><use xlink:href="#10" y="4.342"/><use xlink:href="#11" y="6.513"/><use xlink:href="#12" y="8.684"/></svg><svg x="3825"><use xlink:href="#a"/><use xlink:href="#b" x="34.996" y="8.659"/><use xlink:href="#8"/><use xlink:href="#9" y="2.171"/><use xlink:href="#10" y="4.342"/><use xlink:href="#11" y="6.513"/><use xlink:href="#12" y="8.684"/></svg><svg x="3900"><use xlink:href="#a"/><use xlink:href="#b" x="-.004" y="10.83"/><use xlink:href="#8"/><use xlink:href="#9" y="2.171"/><use xlink:href="#10" y="4.342"/><use xlink:href="#11" y="6.513"/><use xlink:href="#12" y="8.684"/></svg><svg x="3975"><use xlink:href="#a"/><use xlink:href="#b" x="-.004" y="10.83"/><use xlink:href="#8"/><use xlink:href="#9" y="2.171"/><use xlink:href="#10" y="4.342"/><use xlink:href="#11" y="6.513"/><use xlink:href="#12" y="8.684"/></svg><svg x="4050"><use xlink:href="#a"/><use xlink:href="#b" x="-.004" y="10.83"/><use xlink:href="#8"/><use xlink:href="#9" y="2.171"/><use xlink:href="#10" y="4.342"/><use xlink:href="#11" y="6.513"/><use xlink:href="#12" y="8.684"/></svg><svg x="4125"><use xlink:href="#a"/><use xlink:href="#b" x="-.004" y="10.83"/><use xlink:href="#8"/><use xlink:href="#9" y="2.171"/><use xlink:href="#10" y="4.342"/><use xlink:href="#11" y="6.513"/><use xlink:href="#12" y="8.684"/></svg><svg x="4200"><use xlink:href="#a"/><use xlink:href="#b" x="-.004" y="13.001"/><use xlink:href="#8"/><use xlink:href="#9" y="2.171"/><use xlink:href="#10" y="4.342"/><use xlink:href="#11" y="6.513"/><use xlink:href="#12" y="8.684"/><use xlink:href="#9" y="10.855"/></svg><svg x="4275"><use xlink:href="#a"/><use xlink:href="#b" x="-.004" y="13.001"/><use xlink:href="#8"/><use xlink:href="#9" y="2.171"/><use xlink:href="#10" y="4.342"/><use xlink:href="#11" y="6.513"/><use xlink:href="#12" y="8.684"/><use xlink:href="#9" y="10.855"/></svg><svg x="4350"><use xlink:href="#a"/><use xlink:href="#b" x="-.004" y="15.172"/><use xlink:href="#8"/><use xlink:href="#9" y="2.171"/><use xlink:href="#10" y="4.342"/><use xlink:href="#11" y="6.513"/><use xlink:href="#12" y="8.684"/><use xlink:href="#9" y="10.855"/><use xlink:href="#13" y="13.026"/></svg><svg x="4425"><use xlink:href="#a"/><use xlink:href="#b" x="-.004" y="17.343"/><use xlink:href="#8"/><use xlink:href="#9" y="2.171"/><use xlink:href="#10" y="4.342"/><use xlink:href="#11" y="6.513"/><use xlink:href="#12" y="8.684"/><use xlink:href="#9" y="10.855"/><use xlink:href="#13" y="13.026"/><use xlink:href="#14" y="15.197"/></svg><svg x="4500"><use xlink:href="#a"/><use xlink:href="#b" x="-.004" y="17.343"/><use xlink:href="#8"/><use xlink:href="#9" y="2.171"/><use xlink:href="#10" y="4.342"/><use xlink:href="#11" y="6.513"/><use xlink:href="#12" y="8.684"/><use xlink:href="#9" y="10.855"/><use xlink:href="#13" y="13.026"/><use xlink:href="#14" y="15.197"/></svg><svg x="4575"><use xlink:href="#a"/><use xlink:href="#b" x="-.004" y="19.514"/><use xlink:href="#8"/><use xlink:href="#9" y="2.171"/><use xlink:href="#10" y="4.342"/><use xlink:href="#11" y="6.513"/><use xlink:href="#12" y="8.684"/><use xlink:href="#9" y="10.855"/><use xlink:href="#13" y="13.026"/><use xlink:href="#14" y="15.197"/><use xlink:href="#15" y="17.368"/></svg><svg x="4650"><use xlink:href="#a"/><use xlink:href="#b" x="-.004" y="19.514"/><use xlink:href="#8"/><use xlink:href="#9" y="2.171"/><use xlink:href="#10" y="4.342"/><use xlink:href="#11" y="6.513"/><use xlink:href="#12" y="8.684"/><use xlink:href="#9" y="10.855"/><use xlink:href="#13" y="13.026"/><use xlink:href="#14" y="15.197"/><use xlink:href="#15" y="17.368"/></svg><svg x="4725"><use xlink:href="#a"/><use xlink:href="#b" x="-.004" y="19.514"/><use xlink:href="#8"/><use xlink:href="#9" y="2.171"/><use xlink:href="#10" y="4.342"/><use xlink:href="#11" y="6.513"/><use xlink:href="#12" y="8.684"/><use xlink:href="#9" y="10.855"/><use xlink:href="#13" y="13.026"/><use xlink:href="#14" y="15.197"/><use xlink:href="#15" y="17.368"/></svg><svg x="4800"><use xlink:href="#a"/><use xlink:href="#b" x="-.004" y="19.514"/><use xlink:href="#8"/><use xlink:href="#9" y="2.171"/><use xlink:href="#10" y="4.342"/><use xlink:href="#11" y="6.513"/><use xlink:href="#12" y="8.684"/><use xlink:href="#9" y="10.855"/><use xlink:href="#13" y="13.026"/><use xlink:href="#14" y="15.197"/><use xlink:href="#15" y="17.368"/></svg><svg x="4875"><use xlink:href="#a"/><use xlink:href="#b" x="24.996" y="19.514"/><use xlink:href="#8"/><use xlink:href="#9" y="2.171"/><use xlink:href="#10" y="4.342"/><use xlink:href="#11" y="6.513"/><use xlink:href="#12" y="8.684"/><use xlink:href="#9" y="10.855"/><use xlink:href="#13" y="13.026"/><use xlink:href="#14" y="15.197"/><use xlink:href="#15" y="17.368"/><use xlink:href="#3" y="19.539"/></svg><svg x="4950"><use xlink:href="#a"/><use xlink:href="#b" x="24.996" y="19.514"/><use xlink:href="#8"/><use xlink:href="#9" y="2.171"/><use xlink:href="#10" y="4.342"/><use xlink:href="#11" y="6.513"/><use xlink:href="#12" y="8.684"/><use xlink:href="#9" y="10.855"/><use xlink:href="#13" y="13.026"/><use xlink:href="#14" y="15.197"/><use xlink:href="#15" y="17.368"/><use xlink:href="#3" y="19.539"/></svg><svg x="5025"><use xlink:href="#a"/><use xlink:href="#b" x="24.996" y="19.514"/><use xlink:href="#8"/><use xlink:href="#9" y="2.171"/><use xlink:href="#10" y="4.342"/><use xlink:href="#11" y="6.513"/><use xlink:href="#12" y="8.684"/><use xlink:href="#9" y="10.855"/><use xlink:href="#13" y="13.026"/><use xlink:href="#14" y="15.197"/><use xlink:href="#15" y="17.368"/><use xlink:href="#3" y="19.539"/></svg><svg x="5100"><use xlink:href="#a"/><use xlink:href="#b" x="24.996" y="19.514"/><use xlink:href="#8"/><use xlink:href="#9" y="2.171"/><use xlink:href="#10" y="4.342"/><use xlink:href="#11" y="6.513"/><use xlink:href="#12" y="8.684"/><use xlink:href="#9" y="10.855"/><use xlink:href="#13" y="13.026"/><use xlink:href="#14" y="15.197"/><use xlink:href="#15" y="17.368"/><use xlink:href="#3" y="19.539"/></svg><svg x="5175"><use xlink:href="#a"/><use xlink:href="#b" x="24.996" y="19.514"/><use xlink:href="#8"/><use xlink:href="#9" y="2.171"/><use xlink:href="#10" y="4.342"/><use xlink:href="#11" y="6.513"/><use xlink:href="#12" y="8.684"/><use xlink:href="#9" y="10.855"/><use xlink:href="#13" y="13.026"/><use xlink:href="#14" y="15.197"/><use xlink:href="#15" y="17.368"/><use xlink:href="#3" y="19.539"/></svg><svg x="5250"><use xlink:href="#a"/><use xlink:href="#b" x="-.004" y="21.685"/><use xlink:href="#8"/><use xlink:href="#9" y="2.171"/><use xlink:href="#10" y="4.342"/><use xlink:href="#11" y="6.513"/><use xlink:href="#12" y="8.684"/><use xlink:href="#9" y="10.855"/><use xlink:href="#13" y="13.026"/><use xlink:href="#14" y="15.197"/><use xlink:href="#15" y="17.368"/><use xlink:href="#3" y="19.539"/></svg></svg></g></g></svg></svg>