<svg id="Layer_1" xmlns="http://www.w3.org/2000/svg" viewBox="0 0 592 166">
  <style>
    .st0{enable-background:new}.st1{fill:#00b1bf}
  </style>
  <g class="st0">
    <path class="st1" d="M97.5 115.9V113c12-.8 13.6-3.2 13.6-15.7v-68l-38.6 86.5h-2.1l-38.1-83V93c0 16.6 2.4 19.4 14.1 20v2.9H11V113c12.6-.9 14.7-3 14.7-20V32.8c0-11.5-2-13.5-14.4-14.2v-2.9h30l34.9 75.9 33.4-75.9h30.1v2.9c-10.9.2-13.2 2.7-13.2 14.1V99c0 10.7 2.3 13.3 13.3 14.1v2.9H97.5zM162.6 117.5c-4.7 0-8.3-3.6-8.3-8.3s3.8-8.5 8.5-8.5c4.4 0 8.3 4.1 8.3 8.6-.1 4.4-4 8.2-8.5 8.2zM236.1 118c-29.3 0-49.5-21.2-49.5-52.6 0-30.7 20-51.7 49.5-51.7 29.7 0 49.5 22.2 49.5 52.2 0 31.1-20.5 52.1-49.5 52.1zm18.5-91.8c-5.4-4.5-11.5-7.1-18.6-7.1-8.2 0-15.7 3.3-21.6 10.1-6.5 7.4-10.4 22.1-10.4 36.5 0 18 4.4 31.6 13.6 40.1 5.1 4.7 11.8 6.8 18.8 6.8 7.6 0 14.2-2.3 19.5-7.3 8.3-8 12.6-22.2 12.6-40.4-.2-17.3-5.3-31.5-13.9-38.7zM309.6 117.5c-4.7 0-8.3-3.6-8.3-8.3s3.8-8.5 8.5-8.5c4.4 0 8.3 4.1 8.3 8.6 0 4.4-3.9 8.2-8.5 8.2z"/>
  </g>
  <g class="st0">
    <path class="st1" d="M435.5 18.6c-5.7.6-8 1.1-10 2.7-2.9 2.6-4.4 5.9-4.4 17.9v78.4h-2.7l-66.7-83.1v58.7c0 15.6 2.4 18.2 14.1 19.8v2.9h-35.4V113c12.4-1.4 14.7-3.6 14.7-19.8V26.6c-5-6.2-7.3-8-14.7-8v-2.9h25.7l58.4 73.1V37.3c0-7.7-.6-12.3-2.9-14.8-2.6-2.9-5.3-3.2-12-3.9v-2.9h35.9v2.9z"/>
  </g>
  <g class="st0">
    <path class="st1" d="M454.7 117.5c-4.7 0-8.3-3.6-8.3-8.3s3.8-8.5 8.5-8.5c4.4 0 8.3 4.1 8.3 8.6 0 4.4-4 8.2-8.5 8.2zM528.2 118c-29.3 0-49.5-21.2-49.5-52.6 0-30.7 20-51.7 49.5-51.7 29.7 0 49.5 22.2 49.5 52.2 0 31.1-20.4 52.1-49.5 52.1zm18.5-91.8c-5.4-4.5-11.5-7.1-18.6-7.1-8.2 0-15.7 3.3-21.6 10.1-6.5 7.4-10.4 22.1-10.4 36.5 0 18 4.4 31.6 13.6 40.1 5.1 4.7 11.8 6.8 18.8 6.8 7.6 0 14.2-2.3 19.5-7.3 8.3-8 12.6-22.2 12.6-40.4-.2-17.3-5.3-31.5-13.9-38.7z"/>
  </g>
  <g>
    <path d="M21.4 150.9l-5.3-15.3H16c.1 2.3.2 4.4.2 6.4v8.9h-2.7v-18.3h4.2l5.1 14.6h.1l5.2-14.6h4.2v18.3h-2.9v-9.1c0-.9 0-2.1.1-3.6 0-1.5.1-2.3.1-2.7h-.1L24 150.8h-2.6zM48.9 144c0 2.2-.6 4-1.7 5.2-1.1 1.3-2.7 1.9-4.7 1.9-1.2 0-2.3-.3-3.3-.9-1-.6-1.7-1.4-2.2-2.5-.5-1.1-.8-2.3-.8-3.8 0-2.2.6-4 1.7-5.2 1.1-1.2 2.7-1.9 4.7-1.9 1.9 0 3.4.6 4.6 1.9 1.1 1.4 1.7 3.1 1.7 5.3zm-10.5 0c0 1.8.4 3.1 1.1 4 .7.9 1.7 1.4 3.1 1.4s2.4-.5 3.1-1.4c.7-.9 1.1-2.3 1.1-4 0-1.7-.4-3.1-1.1-4-.7-.9-1.7-1.4-3.1-1.4-1.4 0-2.4.4-3.1 1.3-.8 1-1.1 2.3-1.1 4.1zM61.9 150.9V142c0-1.1-.3-2-.8-2.5-.5-.6-1.3-.8-2.4-.8-1.4 0-2.5.4-3.2 1.2-.7.8-1 2.1-1 3.8v7.2h-2.1v-13.7h1.7l.3 1.9h.1c.4-.7 1-1.2 1.8-1.6.8-.4 1.6-.6 2.6-.6 1.7 0 2.9.4 3.7 1.2.8.8 1.3 2.1 1.3 3.8v9h-2zM80.1 144c0 2.2-.6 4-1.7 5.2-1.1 1.3-2.7 1.9-4.7 1.9-1.2 0-2.3-.3-3.3-.9-1-.6-1.7-1.4-2.2-2.5-.5-1.1-.8-2.3-.8-3.8 0-2.2.6-4 1.7-5.2 1.1-1.2 2.7-1.9 4.7-1.9 1.9 0 3.4.6 4.6 1.9 1.2 1.4 1.7 3.1 1.7 5.3zm-10.5 0c0 1.8.4 3.1 1.1 4 .7.9 1.7 1.4 3.1 1.4s2.4-.5 3.1-1.4c.7-.9 1.1-2.3 1.1-4 0-1.7-.4-3.1-1.1-4-.7-.9-1.7-1.4-3.1-1.4-1.4 0-2.4.4-3.1 1.3-.7 1-1.1 2.3-1.1 4.1zM86.2 143.3v7.6h-2.1v-18.3h5c2.2 0 3.9.4 5 1.3s1.6 2.2 1.6 3.9c0 2.4-1.2 4.1-3.7 4.9l5 8.2h-2.5l-4.4-7.6h-3.9zm0-1.9h2.9c1.5 0 2.6-.3 3.3-.9s1.1-1.5 1.1-2.7c0-1.2-.4-2.1-1.1-2.6-.7-.5-1.9-.8-3.4-.8h-2.8v7zM105.4 151.1c-2 0-3.6-.6-4.8-1.9-1.2-1.2-1.8-3-1.8-5.2s.5-4 1.6-5.3c1.1-1.3 2.6-2 4.4-2 1.7 0 3.1.6 4.1 1.7s1.5 2.6 1.5 4.5v1.3H101c0 1.6.4 2.8 1.2 3.7.8.8 1.9 1.3 3.3 1.3 1.5 0 2.9-.3 4.4-.9v1.9c-.7.3-1.4.5-2.1.7-.6.2-1.4.2-2.4.2zm-.5-12.5c-1.1 0-2 .4-2.6 1.1-.7.7-1 1.7-1.2 3h7.2c0-1.3-.3-2.3-.9-3-.6-.7-1.4-1.1-2.5-1.1zM120.4 151.1c-.9 0-1.7-.2-2.5-.5s-1.4-.8-1.9-1.5c.1.8.2 1.6.2 2.3v5.7H114v-19.9h1.7l.3 1.9h.1c.5-.8 1.2-1.3 1.9-1.6.7-.3 1.5-.5 2.4-.5 1.8 0 3.2.6 4.2 1.9s1.5 3 1.5 5.2c0 2.3-.5 4-1.5 5.3-1 1.1-2.4 1.7-4.2 1.7zm-.3-12.4c-1.4 0-2.4.4-3 1.2s-.9 2-1 3.7v.5c0 1.9.3 3.3 1 4.1s1.7 1.2 3.1 1.2c1.2 0 2.1-.5 2.8-1.4s1-2.3 1-4c0-1.7-.3-3-1-3.9s-1.6-1.4-2.9-1.4zM141.6 144c0 2.2-.6 4-1.7 5.2-1.1 1.3-2.7 1.9-4.7 1.9-1.2 0-2.3-.3-3.3-.9-1-.6-1.7-1.4-2.2-2.5-.5-1.1-.8-2.3-.8-3.8 0-2.2.6-4 1.7-5.2 1.1-1.2 2.7-1.9 4.7-1.9 1.9 0 3.4.6 4.6 1.9 1.2 1.4 1.7 3.1 1.7 5.3zm-10.4 0c0 1.8.4 3.1 1.1 4 .7.9 1.7 1.4 3.1 1.4s2.4-.5 3.1-1.4c.7-.9 1.1-2.3 1.1-4 0-1.7-.4-3.1-1.1-4-.7-.9-1.7-1.4-3.1-1.4-1.4 0-2.4.4-3.1 1.3-.8 1-1.1 2.3-1.1 4.1zM168.4 141.7c0 3-.7 5.3-2.2 7-1.5 1.7-3.6 2.5-6.3 2.5-2.8 0-4.9-.8-6.4-2.5s-2.2-4-2.2-7 .7-5.3 2.2-7c1.5-1.6 3.6-2.4 6.4-2.4 2.7 0 4.8.8 6.3 2.5 1.5 1.6 2.2 3.9 2.2 6.9zm-14 0c0 2.3.5 4 1.4 5.1.9 1.2 2.3 1.7 4 1.7 1.8 0 3.1-.6 4-1.7.9-1.2 1.4-2.9 1.4-5.2 0-2.2-.4-4-1.3-5.1-.9-1.2-2.2-1.7-4-1.7-1.8 0-3.2.6-4.1 1.7-.9 1.2-1.4 3-1.4 5.2zM178.6 151.1c-.9 0-1.7-.2-2.5-.5s-1.4-.8-1.9-1.5h-.2c.1.8.2 1.6.2 2.3v5.7h-2.1v-19.9h1.7l.3 1.9h.1c.5-.8 1.2-1.3 1.9-1.6.7-.3 1.5-.5 2.4-.5 1.8 0 3.2.6 4.2 1.9s1.5 3 1.5 5.2c0 2.3-.5 4-1.5 5.3-1 1.1-2.4 1.7-4.1 1.7zm-.3-12.4c-1.4 0-2.4.4-3 1.2s-.9 2-1 3.7v.5c0 1.9.3 3.3 1 4.1s1.7 1.2 3.1 1.2c1.2 0 2.1-.5 2.8-1.4s1-2.3 1-4c0-1.7-.3-3-1-3.9s-1.7-1.4-2.9-1.4zM192.3 149.4c.4 0 .7 0 1.1-.1.3-.1.6-.1.8-.2v1.6c-.2.1-.6.2-1 .3-.4.1-.8.1-1.2.1-2.7 0-4-1.4-4-4.2v-8.2h-2v-1l2-.9.9-2.9h1.2v3.2h4v1.6h-4v8.1c0 .8.2 1.5.6 1.9.4.5.9.7 1.6.7zM196.8 133.4c0-.5.1-.8.4-1 .2-.2.5-.3.9-.3.3 0 .6.1.9.3.2.2.4.6.4 1 0 .5-.1.8-.4 1-.2.2-.5.3-.9.3s-.6-.1-.9-.3c-.3-.2-.4-.5-.4-1zm2.2 17.5h-2v-13.7h2.1v13.7zM215.3 144c0 2.2-.6 4-1.7 5.2-1.1 1.3-2.7 1.9-4.7 1.9-1.2 0-2.3-.3-3.3-.9-1-.6-1.7-1.4-2.2-2.5-.5-1.1-.8-2.3-.8-3.8 0-2.2.6-4 1.7-5.2 1.1-1.2 2.7-1.9 4.7-1.9 1.9 0 3.4.6 4.6 1.9 1.1 1.4 1.7 3.1 1.7 5.3zm-10.5 0c0 1.8.4 3.1 1.1 4 .7.9 1.7 1.4 3.1 1.4s2.4-.5 3.1-1.4c.7-.9 1.1-2.3 1.1-4 0-1.7-.4-3.1-1.1-4-.7-.9-1.7-1.4-3.1-1.4-1.4 0-2.4.4-3.1 1.3-.7 1-1.1 2.3-1.1 4.1zM228.4 150.9V142c0-1.1-.3-2-.8-2.5-.5-.6-1.3-.8-2.4-.8-1.4 0-2.5.4-3.2 1.2-.7.8-1 2.1-1 3.8v7.2h-2v-13.7h1.7l.3 1.9h.1c.4-.7 1-1.2 1.8-1.6.8-.4 1.6-.6 2.6-.6 1.7 0 2.9.4 3.7 1.2.8.8 1.3 2.1 1.3 3.8v9h-2.1zM243.6 147.1c0 1.3-.5 2.3-1.4 3-1 .7-2.3 1-4 1-1.8 0-3.2-.3-4.3-.9v-1.9c.7.3 1.4.6 2.1.8.8.2 1.5.3 2.2.3 1.1 0 1.9-.2 2.5-.5s.9-.9.9-1.6c0-.5-.2-1-.7-1.4-.5-.4-1.4-.8-2.7-1.3-1.3-.5-2.2-.9-2.7-1.2-.5-.4-.9-.8-1.2-1.2-.3-.5-.4-1-.4-1.6 0-1.1.5-2 1.4-2.7s2.2-1 3.7-1 2.9.3 4.3.9l-.7 1.7c-1.4-.6-2.6-.9-3.7-.9-1 0-1.7.2-2.2.5-.5.3-.8.7-.8 1.3 0 .4.1.7.3.9s.5.5.9.7c.4.2 1.2.6 2.4 1 1.6.6 2.7 1.2 3.3 1.8.5.7.8 1.4.8 2.3zM260 136.9c1.8 0 3.2.6 4.2 1.8 1 1.2 1.5 3 1.5 5.2s-.5 4-1.5 5.3c-1 1.2-2.4 1.9-4.2 1.9-.9 0-1.7-.2-2.5-.5s-1.4-.8-1.9-1.5h-.2l-.4 1.8h-1.5v-19.5h2.1v4.7c0 1.1 0 2-.1 2.9h.1c1.1-1.4 2.5-2.1 4.4-2.1zm-.3 1.8c-1.4 0-2.4.4-3.1 1.2-.6.8-.9 2.2-.9 4.1s.3 3.3 1 4.1 1.7 1.2 3.1 1.2c1.3 0 2.2-.5 2.9-1.4.6-.9.9-2.3.9-4 0-1.8-.3-3.1-.9-4-.7-.8-1.7-1.2-3-1.2zM277.8 150.9l-.4-2h-.1c-.7.9-1.4 1.4-2 1.7s-1.5.5-2.6.5c-1.4 0-2.4-.4-3.2-1.1s-1.2-1.7-1.2-3c0-2.8 2.2-4.2 6.7-4.4l2.3-.1v-.9c0-1.1-.2-1.9-.7-2.4-.5-.5-1.2-.8-2.2-.8-1.1 0-2.4.4-3.9 1.1l-.6-1.6c.7-.4 1.4-.7 2.2-.9s1.6-.3 2.4-.3c1.6 0 2.9.4 3.6 1.1.8.7 1.2 1.9 1.2 3.5v9.4h-1.5zm-4.7-1.5c1.3 0 2.3-.4 3.1-1.1.7-.7 1.1-1.7 1.1-3v-1.2l-2.1.1c-1.7.1-2.8.3-3.6.8-.7.5-1.1 1.2-1.1 2.1 0 .8.2 1.3.7 1.7.5.4 1.1.6 1.9.6zM292.5 147.1c0 1.3-.5 2.3-1.4 3-1 .7-2.3 1-4 1-1.8 0-3.2-.3-4.3-.9v-1.9c.7.3 1.4.6 2.1.8.8.2 1.5.3 2.2.3 1.1 0 1.9-.2 2.5-.5s.9-.9.9-1.6c0-.5-.2-1-.7-1.4-.5-.4-1.4-.8-2.7-1.3-1.3-.5-2.2-.9-2.7-1.2-.5-.4-.9-.8-1.2-1.2-.3-.5-.4-1-.4-1.6 0-1.1.5-2 1.4-2.7s2.2-1 3.7-1 2.9.3 4.3.9l-.7 1.7c-1.4-.6-2.6-.9-3.7-.9-1 0-1.7.2-2.2.5-.5.3-.8.7-.8 1.3 0 .4.1.7.3.9s.5.5.9.7c.4.2 1.2.6 2.4 1 1.6.6 2.7 1.2 3.3 1.8.5.7.8 1.4.8 2.3zM301.7 151.1c-2 0-3.6-.6-4.8-1.9-1.2-1.2-1.8-3-1.8-5.2s.5-4 1.6-5.3c1.1-1.3 2.6-2 4.4-2 1.7 0 3.1.6 4.1 1.7 1 1.1 1.5 2.6 1.5 4.5v1.3h-9.5c0 1.6.4 2.8 1.2 3.7.8.8 1.9 1.3 3.3 1.3 1.5 0 2.9-.3 4.4-.9v1.9c-.7.3-1.4.5-2.1.7s-1.4.2-2.3.2zm-.6-12.5c-1.1 0-2 .4-2.6 1.1-.7.7-1 1.7-1.2 3h7.2c0-1.3-.3-2.3-.9-3-.5-.7-1.4-1.1-2.5-1.1zM319.7 149h-.1c-1 1.4-2.4 2.1-4.3 2.1-1.8 0-3.2-.6-4.2-1.8-1-1.2-1.5-3-1.5-5.2 0-2.3.5-4 1.5-5.3 1-1.3 2.4-1.9 4.2-1.9 1.9 0 3.3.7 4.3 2h.2l-.1-1v-6.6h2.1v19.5h-1.7l-.4-1.8zm-4.2.4c1.4 0 2.5-.4 3.1-1.2.6-.8 1-2 1-3.7v-.4c0-1.9-.3-3.3-1-4.2s-1.7-1.2-3.1-1.2c-1.2 0-2.2.5-2.8 1.4-.6.9-1 2.3-1 4 0 1.8.3 3.1 1 4 .6.9 1.5 1.3 2.8 1.3zM344.6 144c0 2.2-.6 4-1.7 5.2s-2.7 1.9-4.7 1.9c-1.2 0-2.3-.3-3.3-.9-1-.6-1.7-1.4-2.2-2.5s-.8-2.3-.8-3.8c0-2.2.6-4 1.7-5.2 1.1-1.2 2.7-1.9 4.7-1.9 1.9 0 3.4.6 4.6 1.9 1.1 1.4 1.7 3.1 1.7 5.3zm-10.5 0c0 1.8.4 3.1 1.1 4 .7.9 1.7 1.4 3.1 1.4 1.4 0 2.4-.5 3.1-1.4.7-.9 1.1-2.3 1.1-4 0-1.7-.4-3.1-1.1-4-.7-.9-1.7-1.4-3.1-1.4-1.4 0-2.4.4-3.1 1.3-.8 1-1.1 2.3-1.1 4.1zM357.6 150.9V142c0-1.1-.3-2-.8-2.5-.5-.6-1.3-.8-2.4-.8-1.4 0-2.5.4-3.2 1.2-.7.8-1 2.1-1 3.8v7.2h-2.1v-13.7h1.7l.3 1.9h.1c.4-.7 1-1.2 1.8-1.6.8-.4 1.6-.6 2.6-.6 1.7 0 2.9.4 3.7 1.2.8.8 1.3 2.1 1.3 3.8v9h-2zM379.1 150.9l-.4-2h-.1c-.7.9-1.4 1.4-2.1 1.7s-1.5.5-2.6.5c-1.4 0-2.4-.4-3.2-1.1s-1.2-1.7-1.2-3c0-2.8 2.2-4.2 6.7-4.4l2.3-.1v-.9c0-1.1-.2-1.9-.7-2.4-.5-.5-1.2-.8-2.2-.8-1.1 0-2.4.4-3.9 1.1l-.6-1.6c.7-.4 1.4-.7 2.2-.9s1.6-.3 2.4-.3c1.6 0 2.9.4 3.6 1.1.8.7 1.2 1.9 1.2 3.5v9.4h-1.4zm-4.7-1.5c1.3 0 2.3-.4 3.1-1.1.7-.7 1.1-1.7 1.1-3v-1.2l-2.1.1c-1.7.1-2.8.3-3.6.8-.7.5-1.1 1.2-1.1 2.1 0 .8.2 1.3.7 1.7.4.4 1.1.6 1.9.6zM407.1 150.9h-3.7l-9-14.6h-.1l.1.8c.1 1.6.2 3 .2 4.3v9.5h-2.7v-18.3h3.6l9 14.5h.1c0-.2-.1-.9-.1-2.1 0-1.2-.1-2.2-.1-2.8v-9.6h2.7v18.3zM417.5 151.1c-2 0-3.6-.6-4.8-1.9-1.2-1.2-1.8-3-1.8-5.2s.5-4 1.6-5.3c1.1-1.3 2.6-2 4.4-2 1.7 0 3.1.6 4.1 1.7 1 1.1 1.5 2.6 1.5 4.5v1.3H413c0 1.6.4 2.8 1.2 3.7.8.8 1.9 1.3 3.3 1.3 1.5 0 2.9-.3 4.4-.9v1.9c-.7.3-1.4.5-2.1.7s-1.4.2-2.3.2zm-.6-12.5c-1.1 0-2 .4-2.6 1.1s-1 1.7-1.2 3h7.2c0-1.3-.3-2.3-.9-3-.5-.7-1.4-1.1-2.5-1.1zM428.1 137.1v8.9c0 1.1.3 2 .8 2.5s1.3.8 2.4.8c1.4 0 2.5-.4 3.2-1.2.7-.8 1-2.1 1-3.8v-7.2h2.1v13.7h-1.7l-.3-1.8h-.1c-.4.7-1 1.2-1.8 1.6s-1.6.5-2.6.5c-1.7 0-2.9-.4-3.8-1.2s-1.2-2.1-1.2-3.8v-9h2zM446.3 149.4c.4 0 .7 0 1.1-.1.3-.1.6-.1.8-.2v1.6c-.2.1-.6.2-1 .3-.4.1-.8.1-1.2.1-2.7 0-4-1.4-4-4.2v-8.2h-2v-1l2-.9.9-2.9h1.2v3.2h4v1.6h-4v8.1c0 .8.2 1.5.6 1.9.4.5.9.7 1.6.7zM457.2 136.9c.6 0 1.2.1 1.6.2l-.3 1.9c-.6-.1-1.1-.2-1.5-.2-1.1 0-2.1.5-2.9 1.4s-1.2 2-1.2 3.4v7.4h-2.1v-13.7h1.7l.2 2.5h.1c.5-.9 1.1-1.6 1.8-2.1s1.7-.8 2.6-.8zM469.9 150.9l-.4-2h-.1c-.7.9-1.4 1.4-2 1.7-.7.3-1.5.5-2.6.5-1.4 0-2.4-.4-3.2-1.1s-1.2-1.7-1.2-3c0-2.8 2.2-4.2 6.7-4.4l2.3-.1v-.9c0-1.1-.2-1.9-.7-2.4-.5-.5-1.2-.8-2.2-.8-1.1 0-2.4.4-3.9 1.1l-.6-1.6c.7-.4 1.4-.7 2.2-.9s1.6-.3 2.4-.3c1.6 0 2.9.4 3.6 1.1.8.7 1.2 1.9 1.2 3.5v9.4h-1.5zm-4.7-1.5c1.3 0 2.3-.4 3.1-1.1.7-.7 1.1-1.7 1.1-3v-1.2l-2.1.1c-1.7.1-2.8.3-3.6.8-.7.5-1.1 1.2-1.1 2.1 0 .8.2 1.3.7 1.7.4.4 1 .6 1.9.6zM477.8 150.9h-2.1v-19.5h2.1v19.5zM505.3 141.7c0 3-.7 5.3-2.2 7-1.5 1.7-3.6 2.5-6.3 2.5-2.8 0-4.9-.8-6.4-2.5-1.5-1.6-2.2-4-2.2-7s.7-5.3 2.2-7c1.5-1.6 3.6-2.4 6.4-2.4 2.7 0 4.8.8 6.3 2.5 1.5 1.6 2.2 3.9 2.2 6.9zm-14 0c0 2.3.5 4 1.4 5.1.9 1.2 2.3 1.7 4.1 1.7 1.8 0 3.1-.6 4-1.7.9-1.2 1.4-2.9 1.4-5.2 0-2.2-.4-4-1.3-5.1-.9-1.2-2.2-1.7-4-1.7-1.8 0-3.2.6-4.1 1.7-1 1.2-1.5 3-1.5 5.2zM515.5 151.1c-.9 0-1.7-.2-2.5-.5-.7-.3-1.4-.8-1.9-1.5h-.1c.1.8.2 1.6.2 2.3v5.7h-2.1v-19.9h1.7l.3 1.9h.1c.5-.8 1.2-1.3 1.9-1.6s1.5-.5 2.4-.5c1.8 0 3.2.6 4.2 1.9 1 1.2 1.5 3 1.5 5.2 0 2.3-.5 4-1.5 5.3-1.1 1.1-2.5 1.7-4.2 1.7zm-.3-12.4c-1.4 0-2.4.4-3 1.2s-.9 2-1 3.7v.5c0 1.9.3 3.3 1 4.1.6.8 1.7 1.2 3.1 1.2 1.2 0 2.1-.5 2.8-1.4.7-1 1-2.3 1-4 0-1.7-.3-3-1-3.9-.8-1-1.7-1.4-2.9-1.4zM524.6 133.4c0-.5.1-.8.3-1 .2-.2.5-.3.9-.3.3 0 .6.1.9.3.2.2.4.6.4 1 0 .5-.1.8-.4 1-.2.2-.5.3-.9.3s-.6-.1-.9-.3c-.2-.2-.3-.5-.3-1zm2.3 17.5h-2.1v-13.7h2.1v13.7zM540.7 150.9V142c0-1.1-.3-2-.8-2.5-.5-.6-1.3-.8-2.4-.8-1.4 0-2.5.4-3.2 1.2-.7.8-1 2.1-1 3.8v7.2h-2.1v-13.7h1.7l.3 1.9h.1c.4-.7 1-1.2 1.8-1.6.8-.4 1.6-.6 2.6-.6 1.7 0 2.9.4 3.7 1.2.8.8 1.3 2.1 1.3 3.8v9h-2zM546.9 133.4c0-.5.1-.8.4-1 .2-.2.5-.3.9-.3.3 0 .6.1.9.3s.4.6.4 1c0 .5-.1.8-.4 1-.2.2-.5.3-.9.3s-.6-.1-.9-.3c-.3-.2-.4-.5-.4-1zm2.2 17.5H547v-13.7h2.1v13.7zM565.4 144c0 2.2-.6 4-1.7 5.2s-2.7 1.9-4.7 1.9c-1.2 0-2.3-.3-3.3-.9-1-.6-1.7-1.4-2.2-2.5s-.8-2.3-.8-3.8c0-2.2.6-4 1.7-5.2 1.1-1.2 2.7-1.9 4.7-1.9 1.9 0 3.4.6 4.6 1.9 1.1 1.4 1.7 3.1 1.7 5.3zm-10.5 0c0 1.8.4 3.1 1.1 4 .7.9 1.7 1.4 3.1 1.4 1.4 0 2.4-.5 3.1-1.4.7-.9 1.1-2.3 1.1-4 0-1.7-.4-3.1-1.1-4-.7-.9-1.7-1.4-3.1-1.4-1.4 0-2.4.4-3.1 1.3-.7 1-1.1 2.3-1.1 4.1zM578.5 150.9V142c0-1.1-.3-2-.8-2.5-.5-.6-1.3-.8-2.4-.8-1.4 0-2.5.4-3.2 1.2s-1 2.1-1 3.8v7.2H569v-13.7h1.7l.3 1.9h.1c.4-.7 1-1.2 1.8-1.6.8-.4 1.6-.6 2.6-.6 1.7 0 2.9.4 3.7 1.2.8.8 1.3 2.1 1.3 3.8v9h-2z"/>
  </g>
</svg>
