<svg xmlns="http://www.w3.org/2000/svg" xmlns:xlink="http://www.w3.org/1999/xlink" width="940" height="711.3"><rect width="940" height="711.3" rx="5" ry="5" class="a"/><svg y="0%" x="0%"><circle cx="20" cy="20" r="6" fill="#ff5f58"/><circle cx="40" cy="20" r="6" fill="#ffbd2e"/><circle cx="60" cy="20" r="6" fill="#18c132"/></svg><svg height="651.3" viewBox="0 0 90 65.13" width="900" x="15" xmlns="http://www.w3.org/2000/svg" xmlns:xlink="http://www.w3.org/1999/xlink" y="50"><style>@keyframes u{0%{transform:translateX(0)}12.1%{transform:translateX(-90px)}17.2%{transform:translateX(-180px)}17.5%{transform:translateX(-720px)}18.4%{transform:translateX(-810px)}26.1%{transform:translateX(-900px)}27.5%{transform:translateX(-990px)}28%{transform:translateX(-1080px)}28.9%{transform:translateX(-1170px)}29.7%{transform:translateX(-1260px)}32.6%{transform:translateX(-1350px)}33.8%{transform:translateX(-1440px)}35.4%{transform:translateX(-1530px)}37%{transform:translateX(-1620px)}37.8%{transform:translateX(-1710px)}41.5%{transform:translateX(-1800px)}41.6%{transform:translateX(-2070px)}52.1%{transform:translateX(-2160px)}52.2%{transform:translateX(-2340px)}52.8%{transform:translateX(-2430px)}53.3%{transform:translateX(-2700px)}53.4%{transform:translateX(-3510px)}53.5%{transform:translateX(-3600px)}53.6%{transform:translateX(-3960px)}53.7%{transform:translateX(-4050px)}54.4%{transform:translateX(-4140px)}63.3%{transform:translateX(-4230px)}64.5%{transform:translateX(-4320px)}65.1%{transform:translateX(-4410px)}66%{transform:translateX(-4500px)}67%{transform:translateX(-4590px)}69.3%{transform:translateX(-4680px)}70%{transform:translateX(-4770px)}71.2%{transform:translateX(-4860px)}72%{transform:translateX(-4950px)}73.3%{transform:translateX(-5040px)}79.2%{transform:translateX(-5220px)}79.3%{transform:translateX(-5400px)}85.6%{transform:translateX(-5490px)}85.7%{transform:translateX(-5670px)}86.3%{transform:translateX(-5760px)}87.1%{transform:translateX(-5850px)}87.2%{transform:translateX(-5940px)}87.4%{transform:translateX(-6480px)}88.2%{transform:translateX(-6570px)}to{transform:translateX(-6660px)}}.a{fill:#282d35}.f{fill:#71bef2}.g,.h,.i,.j,.k{fill:#e88388;font-weight:700}.h,.i,.j,.k{fill:#dbab79}.i,.j,.k{fill:#a8cc8c}.j,.k{fill:#d290e3}.k{fill:#b9bfca}.l{fill:#a8cc8c}.m{text-decoration:underline}.m,.n,.o{fill:#b9c0cb}.o{font-weight:700}.p{fill:#66c2cd}.q{fill:#b9bfca}.r{fill:#6f7783}</style><g font-size="1.67" font-family="Monaco,Consolas,Menlo,'Bitstream Vera Sans Mono','Powerline Symbols',monospace"><defs><symbol id="1"><text y="1.67" class="f">~/P/p/m/p/rush</text></symbol><symbol id="2"><text y="1.67" class="f">~/P/p/m/p/rush</text><text x="15.03" y="1.67" class="g">❯</text><text x="16.032" y="1.67" class="h">❯</text><text x="17.034" y="1.67" class="i">❯</text></symbol><symbol id="3"><text y="1.67" class="f">~/P/p/m/p/rush</text><text x="15.03" y="1.67" class="g">❯</text><text x="16.032" y="1.67" class="h">❯</text><text x="17.034" y="1.67" class="i">❯</text><text x="79.158" y="1.67" class="i">master</text><text x="86.172" y="1.67" class="j">⬆</text><text x="88.176" y="1.67" class="k">◼</text></symbol><symbol id="4"><text y="1.67" class="f">~/P/p/m/p/rush</text><text x="15.03" y="1.67" class="g">❯</text><text x="16.032" y="1.67" class="h">❯</text><text x="17.034" y="1.67" class="i">❯</text><text x="19.038" y="1.67" class="l">r</text><text x="79.158" y="1.67" class="i">master</text><text x="86.172" y="1.67" class="j">⬆</text><text x="88.176" y="1.67" class="k">◼</text></symbol><symbol id="5"><text y="1.67" class="f">~/P/p/m/p/rush</text><text x="15.03" y="1.67" class="g">❯</text><text x="16.032" y="1.67" class="h">❯</text><text x="17.034" y="1.67" class="i">❯</text><text x="19.038" y="1.67" class="m">ru</text><text x="79.158" y="1.67" class="i">master</text><text x="86.172" y="1.67" class="j">⬆</text><text x="88.176" y="1.67" class="k">◼</text></symbol><symbol id="6"><text y="1.67" class="f">~/P/p/m/p/rush</text><text x="15.03" y="1.67" class="g">❯</text><text x="16.032" y="1.67" class="h">❯</text><text x="17.034" y="1.67" class="i">❯</text><text x="19.038" y="1.67" class="m">rus</text><text x="79.158" y="1.67" class="i">master</text><text x="86.172" y="1.67" class="j">⬆</text><text x="88.176" y="1.67" class="k">◼</text></symbol><symbol id="7"><text y="1.67" class="f">~/P/p/m/p/rush</text><text x="15.03" y="1.67" class="g">❯</text><text x="16.032" y="1.67" class="h">❯</text><text x="17.034" y="1.67" class="i">❯</text><text x="19.038" y="1.67" class="l">rush</text><text x="79.158" y="1.67" class="i">master</text><text x="86.172" y="1.67" class="j">⬆</text><text x="88.176" y="1.67" class="k">◼</text></symbol><symbol id="8"><text y="1.67" class="f">~/P/p/m/p/rush</text><text x="15.03" y="1.67" class="g">❯</text><text x="16.032" y="1.67" class="h">❯</text><text x="17.034" y="1.67" class="i">❯</text><text x="19.038" y="1.67" class="l">rush</text><text x="24.048" y="1.67" class="n">build</text><text x="79.158" y="1.67" class="i">master</text><text x="86.172" y="1.67" class="j">⬆</text><text x="88.176" y="1.67" class="k">◼</text></symbol><symbol id="9"><text y="1.67" class="o">Rush</text><text x="5.01" y="1.67" class="o">Multi-Project</text><text x="19.038" y="1.67" class="o">Build</text><text x="25.05" y="1.67" class="o">Tool</text><text x="30.06" y="1.67" class="o">5.5.2</text><text x="36.072" y="1.67" class="p">-</text><text x="38.076" y="1.67" class="p">https://rushjs.io</text></symbol><symbol id="10"><text y="1.67" class="n">Starting</text><text x="9.018" y="1.67" class="n">&quot;rush</text><text x="15.03" y="1.67" class="n">build&quot;</text></symbol><symbol id="11"><text y="1.67" class="n">Executing</text><text x="10.02" y="1.67" class="n">a</text><text x="12.024" y="1.67" class="n">maximum</text><text x="20.04" y="1.67" class="n">of</text><text x="23.046" y="1.67" class="n">4</text><text x="25.05" y="1.67" class="n">simultaneous</text><text x="38.076" y="1.67" class="n">processes...</text></symbol><symbol id="12"><text y="1.67" class="q">[@scope/utils]</text><text x="15.03" y="1.67" class="q">started</text></symbol><symbol id="13"><text y="1.67" class="l">1</text><text x="2.004" y="1.67" class="l">of</text><text x="5.01" y="1.67" class="l">2:</text><text x="8.016" y="1.67" class="l">[@scope/utils]</text><text x="23.046" y="1.67" class="l">skipped</text></symbol><symbol id="14"><text y="1.67" class="q">[@scope/app]</text><text x="13.026" y="1.67" class="q">started</text></symbol><symbol id="15"><text y="1.67" class="l">2</text><text x="2.004" y="1.67" class="l">of</text><text x="5.01" y="1.67" class="l">2:</text><text x="8.016" y="1.67" class="l">[@scope/app]</text><text x="21.042" y="1.67" class="l">skipped</text></symbol><symbol id="16"><text y="1.67" class="r">SKIPPED</text><text x="8.016" y="1.67" class="r">(2)</text></symbol><symbol id="17"><text y="1.67" class="r">================================</text></symbol><symbol id="18"><text y="1.67" class="r">@scope/app</text></symbol><symbol id="19"><text y="1.67" class="r">@scope/utils</text></symbol><symbol id="20"><text y="1.67" class="l">rush</text><text x="5.01" y="1.67" class="l">build</text><text x="11.022" y="1.67" class="l">(0.06</text><text x="17.034" y="1.67" class="l">seconds)</text></symbol><symbol id="21"><text y="1.67" class="f">~/P/p/m/p/rush</text><text x="15.03" y="1.67" class="g">❯</text><text x="16.032" y="1.67" class="h">❯</text><text x="17.034" y="1.67" class="i">❯</text><text x="19.038" y="1.67" class="l">rush</text><text x="24.048" y="1.67" class="n">start</text><text x="79.158" y="1.67" class="i">master</text><text x="86.172" y="1.67" class="j">⬆</text><text x="88.176" y="1.67" class="k">◼</text></symbol><symbol id="22"><text y="1.67" class="n">Starting</text><text x="9.018" y="1.67" class="n">&quot;rush</text><text x="15.03" y="1.67" class="n">start&quot;</text></symbol><symbol id="23"><text y="1.67" class="n">Hello,</text><text x="7.014" y="1.67" class="n">Everyone</text></symbol><symbol id="a"><path fill="transparent" d="M0 0h90v31H0z"/></symbol><symbol id="b"><path fill="#6f7683" d="M0 0h1.102v2.171H0z"/></symbol></defs><path class="a" d="M0 0h90v65.13H0z"/><g style="animation-duration:11.302519s;animation-iteration-count:infinite;animation-name:u;animation-timing-function:steps(1,end)"><svg width="6750"><svg><use xlink:href="#a"/><use xlink:href="#b" x="-.004"/></svg><svg x="90"><use xlink:href="#a"/><use xlink:href="#b" x="-.004"/></svg><svg x="180"><use xlink:href="#a"/><use xlink:href="#b" x="-.004"/></svg><svg x="270"><use xlink:href="#a"/><use xlink:href="#b" x="-.004"/></svg><svg x="360"><use xlink:href="#a"/><use xlink:href="#b" x="-.004"/></svg><svg x="450"><use xlink:href="#a"/><use xlink:href="#b" x="14.996"/><use xlink:href="#1"/></svg><svg x="540"><use xlink:href="#a"/><use xlink:href="#b" x="14.996"/><use xlink:href="#1"/></svg><svg x="630"><use xlink:href="#a"/><use xlink:href="#b" x="18.996"/><use xlink:href="#2"/></svg><svg x="720"><use xlink:href="#a"/><use xlink:href="#b" x="18.996"/><use xlink:href="#2"/></svg><svg x="810"><use xlink:href="#a"/><use xlink:href="#b" x="18.996"/><use xlink:href="#3"/></svg><svg x="900"><use xlink:href="#a"/><use xlink:href="#b" x="19.996"/><use xlink:href="#4"/></svg><svg x="990"><use xlink:href="#a"/><use xlink:href="#b" x="20.996"/><use xlink:href="#5"/></svg><svg x="1080"><use xlink:href="#a"/><use xlink:href="#b" x="21.996"/><use xlink:href="#6"/></svg><svg x="1170"><use xlink:href="#a"/><use xlink:href="#b" x="22.996"/><use xlink:href="#7"/></svg><svg x="1260"><use xlink:href="#a"/><use xlink:href="#b" x="23.996"/><use xlink:href="#7"/></svg><svg x="1350"><use xlink:href="#a"/><use xlink:href="#b" x="24.996"/><text y="1.67" class="f">~/P/p/m/p/rush</text><text x="15.03" y="1.67" class="g">❯</text><text x="16.032" y="1.67" class="h">❯</text><text x="17.034" y="1.67" class="i">❯</text><text x="19.038" y="1.67" class="l">rush</text><text x="24.048" y="1.67" class="n">b</text><text x="79.158" y="1.67" class="i">master</text><text x="86.172" y="1.67" class="j">⬆</text><text x="88.176" y="1.67" class="k">◼</text></svg><svg x="1440"><use xlink:href="#a"/><use xlink:href="#b" x="25.996"/><text y="1.67" class="f">~/P/p/m/p/rush</text><text x="15.03" y="1.67" class="g">❯</text><text x="16.032" y="1.67" class="h">❯</text><text x="17.034" y="1.67" class="i">❯</text><text x="19.038" y="1.67" class="l">rush</text><text x="24.048" y="1.67" class="n">bu</text><text x="79.158" y="1.67" class="i">master</text><text x="86.172" y="1.67" class="j">⬆</text><text x="88.176" y="1.67" class="k">◼</text></svg><svg x="1530"><use xlink:href="#a"/><use xlink:href="#b" x="26.996"/><text y="1.67" class="f">~/P/p/m/p/rush</text><text x="15.03" y="1.67" class="g">❯</text><text x="16.032" y="1.67" class="h">❯</text><text x="17.034" y="1.67" class="i">❯</text><text x="19.038" y="1.67" class="l">rush</text><text x="24.048" y="1.67" class="n">bui</text><text x="79.158" y="1.67" class="i">master</text><text x="86.172" y="1.67" class="j">⬆</text><text x="88.176" y="1.67" class="k">◼</text></svg><svg x="1620"><use xlink:href="#a"/><use xlink:href="#b" x="27.996"/><text y="1.67" class="f">~/P/p/m/p/rush</text><text x="15.03" y="1.67" class="g">❯</text><text x="16.032" y="1.67" class="h">❯</text><text x="17.034" y="1.67" class="i">❯</text><text x="19.038" y="1.67" class="l">rush</text><text x="24.048" y="1.67" class="n">buil</text><text x="79.158" y="1.67" class="i">master</text><text x="86.172" y="1.67" class="j">⬆</text><text x="88.176" y="1.67" class="k">◼</text></svg><svg x="1710"><use xlink:href="#a"/><use xlink:href="#b" x="28.996"/><use xlink:href="#8"/></svg><svg x="1800"><use xlink:href="#a"/><use xlink:href="#b" x="28.996"/><use xlink:href="#8"/></svg><svg x="1890"><use xlink:href="#a"/><use xlink:href="#b" x="28.996"/><use xlink:href="#8"/></svg><svg x="1980"><use xlink:href="#a"/><use xlink:href="#b" x="-.004" y="2.146"/><use xlink:href="#8"/></svg><svg x="2070"><use xlink:href="#a"/><use xlink:href="#b" x="-.004" y="2.146"/><use xlink:href="#8"/></svg><svg x="2160"><use xlink:href="#a"/><use xlink:href="#b" x="-.004" y="4.317"/><use xlink:href="#8"/></svg><svg x="2250"><use xlink:href="#a"/><use xlink:href="#b" x="-.004" y="10.83"/><use xlink:href="#8"/><use xlink:href="#9" y="6.513"/></svg><svg x="2340"><use xlink:href="#a"/><use xlink:href="#b" x="-.004" y="13.001"/><use xlink:href="#8"/><use xlink:href="#9" y="6.513"/></svg><svg x="2430"><use xlink:href="#a"/><use xlink:href="#b" x="-.004" y="17.343"/><use xlink:href="#8"/><use xlink:href="#9" y="6.513"/><use xlink:href="#10" y="13.026"/></svg><svg x="2520"><use xlink:href="#a"/><use xlink:href="#b" x="-.004" y="21.685"/><use xlink:href="#8"/><use xlink:href="#9" y="6.513"/><use xlink:href="#10" y="13.026"/><use xlink:href="#11" y="17.368"/></svg><svg x="2610"><use xlink:href="#a"/><use xlink:href="#b" x="-.004" y="23.856"/><use xlink:href="#8"/><use xlink:href="#9" y="6.513"/><use xlink:href="#10" y="13.026"/><use xlink:href="#11" y="17.368"/><use xlink:href="#12" y="21.71"/></svg><svg x="2700"><use xlink:href="#a"/><use xlink:href="#b" x="-.004" y="26.027"/><use xlink:href="#8"/><use xlink:href="#9" y="6.513"/><use xlink:href="#10" y="13.026"/><use xlink:href="#11" y="17.368"/><use xlink:href="#12" y="21.71"/><use xlink:href="#13" y="23.881"/></svg><svg x="2790"><use xlink:href="#a"/><use xlink:href="#b" x="-.004" y="28.198"/><use xlink:href="#8"/><use xlink:href="#9" y="6.513"/><use xlink:href="#10" y="13.026"/><use xlink:href="#11" y="17.368"/><use xlink:href="#12" y="21.71"/><use xlink:href="#13" y="23.881"/><use xlink:href="#14" y="26.052"/></svg><svg x="2880"><use xlink:href="#a"/><use xlink:href="#b" x="-.004" y="30.369"/><use xlink:href="#8"/><use xlink:href="#9" y="6.513"/><use xlink:href="#10" y="13.026"/><use xlink:href="#11" y="17.368"/><use xlink:href="#12" y="21.71"/><use xlink:href="#13" y="23.881"/><use xlink:href="#14" y="26.052"/><use xlink:href="#15" y="28.223"/></svg><svg x="2970"><use xlink:href="#a"/><use xlink:href="#b" x="-.004" y="32.54"/><use xlink:href="#8"/><use xlink:href="#9" y="6.513"/><use xlink:href="#10" y="13.026"/><use xlink:href="#11" y="17.368"/><use xlink:href="#12" y="21.71"/><use xlink:href="#13" y="23.881"/><use xlink:href="#14" y="26.052"/><use xlink:href="#15" y="28.223"/></svg><svg x="3060"><use xlink:href="#a"/><use xlink:href="#b" x="-.004" y="34.711"/><use xlink:href="#8"/><use xlink:href="#9" y="6.513"/><use xlink:href="#10" y="13.026"/><use xlink:href="#11" y="17.368"/><use xlink:href="#12" y="21.71"/><use xlink:href="#13" y="23.881"/><use xlink:href="#14" y="26.052"/><use xlink:href="#15" y="28.223"/><use xlink:href="#16" y="32.565"/></svg><svg x="3150"><use xlink:href="#a"/><use xlink:href="#b" x="-.004" y="39.053"/><use xlink:href="#8"/><use xlink:href="#9" y="6.513"/><use xlink:href="#10" y="13.026"/><use xlink:href="#11" y="17.368"/><use xlink:href="#12" y="21.71"/><use xlink:href="#13" y="23.881"/><use xlink:href="#14" y="26.052"/><use xlink:href="#15" y="28.223"/><use xlink:href="#16" y="32.565"/><use xlink:href="#17" y="34.736"/><use xlink:href="#18" y="36.907"/></svg><svg x="3240"><use xlink:href="#a"/><use xlink:href="#b" x="-.004" y="41.224"/><use xlink:href="#8"/><use xlink:href="#9" y="6.513"/><use xlink:href="#10" y="13.026"/><use xlink:href="#11" y="17.368"/><use xlink:href="#12" y="21.71"/><use xlink:href="#13" y="23.881"/><use xlink:href="#14" y="26.052"/><use xlink:href="#15" y="28.223"/><use xlink:href="#16" y="32.565"/><use xlink:href="#17" y="34.736"/><use xlink:href="#18" y="36.907"/><use xlink:href="#19" y="39.078"/></svg><svg x="3330"><use xlink:href="#a"/><use xlink:href="#b" x="-.004" y="45.566"/><use xlink:href="#8"/><use xlink:href="#9" y="6.513"/><use xlink:href="#10" y="13.026"/><use xlink:href="#11" y="17.368"/><use xlink:href="#12" y="21.71"/><use xlink:href="#13" y="23.881"/><use xlink:href="#14" y="26.052"/><use xlink:href="#15" y="28.223"/><use xlink:href="#16" y="32.565"/><use xlink:href="#17" y="34.736"/><use xlink:href="#18" y="36.907"/><use xlink:href="#19" y="39.078"/><use xlink:href="#17" y="41.249"/></svg><svg x="3420"><use xlink:href="#a"/><use xlink:href="#b" x="-.004" y="47.737"/><use xlink:href="#8"/><use xlink:href="#9" y="6.513"/><use xlink:href="#10" y="13.026"/><use xlink:href="#11" y="17.368"/><use xlink:href="#12" y="21.71"/><use xlink:href="#13" y="23.881"/><use xlink:href="#14" y="26.052"/><use xlink:href="#15" y="28.223"/><use xlink:href="#16" y="32.565"/><use xlink:href="#17" y="34.736"/><use xlink:href="#18" y="36.907"/><use xlink:href="#19" y="39.078"/><use xlink:href="#17" y="41.249"/></svg><svg x="3510"><use xlink:href="#a"/><use xlink:href="#b" x="-.004" y="49.908"/><use xlink:href="#8"/><use xlink:href="#9" y="6.513"/><use xlink:href="#10" y="13.026"/><use xlink:href="#11" y="17.368"/><use xlink:href="#12" y="21.71"/><use xlink:href="#13" y="23.881"/><use xlink:href="#14" y="26.052"/><use xlink:href="#15" y="28.223"/><use xlink:href="#16" y="32.565"/><use xlink:href="#17" y="34.736"/><use xlink:href="#18" y="36.907"/><use xlink:href="#19" y="39.078"/><use xlink:href="#17" y="41.249"/><use xlink:href="#20" y="47.762"/></svg><svg x="3600"><use xlink:href="#a"/><use xlink:href="#b" x="-.004" y="49.908"/><use xlink:href="#8"/><use xlink:href="#9" y="6.513"/><use xlink:href="#10" y="13.026"/><use xlink:href="#11" y="17.368"/><use xlink:href="#12" y="21.71"/><use xlink:href="#13" y="23.881"/><use xlink:href="#14" y="26.052"/><use xlink:href="#15" y="28.223"/><use xlink:href="#16" y="32.565"/><use xlink:href="#17" y="34.736"/><use xlink:href="#18" y="36.907"/><use xlink:href="#19" y="39.078"/><use xlink:href="#17" y="41.249"/><use xlink:href="#20" y="47.762"/></svg><svg x="3690"><use xlink:href="#a"/><use xlink:href="#b" x="-.004" y="49.908"/><use xlink:href="#8"/><use xlink:href="#9" y="6.513"/><use xlink:href="#10" y="13.026"/><use xlink:href="#11" y="17.368"/><use xlink:href="#12" y="21.71"/><use xlink:href="#13" y="23.881"/><use xlink:href="#14" y="26.052"/><use xlink:href="#15" y="28.223"/><use xlink:href="#16" y="32.565"/><use xlink:href="#17" y="34.736"/><use xlink:href="#18" y="36.907"/><use xlink:href="#19" y="39.078"/><use xlink:href="#17" y="41.249"/><use xlink:href="#20" y="47.762"/></svg><svg x="3780"><use xlink:href="#a"/><use xlink:href="#b" x="18.996" y="49.908"/><use xlink:href="#8"/><use xlink:href="#9" y="6.513"/><use xlink:href="#10" y="13.026"/><use xlink:href="#11" y="17.368"/><use xlink:href="#12" y="21.71"/><use xlink:href="#13" y="23.881"/><use xlink:href="#14" y="26.052"/><use xlink:href="#15" y="28.223"/><use xlink:href="#16" y="32.565"/><use xlink:href="#17" y="34.736"/><use xlink:href="#18" y="36.907"/><use xlink:href="#19" y="39.078"/><use xlink:href="#17" y="41.249"/><use xlink:href="#20" y="47.762"/><use xlink:href="#3" y="49.933"/></svg><svg x="3870"><use xlink:href="#a"/><use xlink:href="#b" x="18.996" y="49.908"/><use xlink:href="#8"/><use xlink:href="#9" y="6.513"/><use xlink:href="#10" y="13.026"/><use xlink:href="#11" y="17.368"/><use xlink:href="#12" y="21.71"/><use xlink:href="#13" y="23.881"/><use xlink:href="#14" y="26.052"/><use xlink:href="#15" y="28.223"/><use xlink:href="#16" y="32.565"/><use xlink:href="#17" y="34.736"/><use xlink:href="#18" y="36.907"/><use xlink:href="#19" y="39.078"/><use xlink:href="#17" y="41.249"/><use xlink:href="#20" y="47.762"/><use xlink:href="#3" y="49.933"/></svg><svg x="3960"><use xlink:href="#a"/><use xlink:href="#b" x="18.996" y="49.908"/><use xlink:href="#8"/><use xlink:href="#9" y="6.513"/><use xlink:href="#10" y="13.026"/><use xlink:href="#11" y="17.368"/><use xlink:href="#12" y="21.71"/><use xlink:href="#13" y="23.881"/><use xlink:href="#14" y="26.052"/><use xlink:href="#15" y="28.223"/><use xlink:href="#16" y="32.565"/><use xlink:href="#17" y="34.736"/><use xlink:href="#18" y="36.907"/><use xlink:href="#19" y="39.078"/><use xlink:href="#17" y="41.249"/><use xlink:href="#20" y="47.762"/><use xlink:href="#3" y="49.933"/></svg><svg x="4050"><use xlink:href="#a"/><use xlink:href="#b" x="18.996" y="49.908"/><use xlink:href="#8"/><use xlink:href="#9" y="6.513"/><use xlink:href="#10" y="13.026"/><use xlink:href="#11" y="17.368"/><use xlink:href="#12" y="21.71"/><use xlink:href="#13" y="23.881"/><use xlink:href="#14" y="26.052"/><use xlink:href="#15" y="28.223"/><use xlink:href="#16" y="32.565"/><use xlink:href="#17" y="34.736"/><use xlink:href="#18" y="36.907"/><use xlink:href="#19" y="39.078"/><use xlink:href="#17" y="41.249"/><use xlink:href="#20" y="47.762"/><use xlink:href="#3" y="49.933"/></svg><svg x="4140"><use xlink:href="#a"/><use xlink:href="#b" x="18.996" y="49.908"/><use xlink:href="#8"/><use xlink:href="#9" y="6.513"/><use xlink:href="#10" y="13.026"/><use xlink:href="#11" y="17.368"/><use xlink:href="#12" y="21.71"/><use xlink:href="#13" y="23.881"/><use xlink:href="#14" y="26.052"/><use xlink:href="#15" y="28.223"/><use xlink:href="#16" y="32.565"/><use xlink:href="#17" y="34.736"/><use xlink:href="#18" y="36.907"/><use xlink:href="#19" y="39.078"/><use xlink:href="#17" y="41.249"/><use xlink:href="#20" y="47.762"/><use xlink:href="#3" y="49.933"/></svg><svg x="4230"><use xlink:href="#a"/><use xlink:href="#b" x="19.996" y="49.908"/><use xlink:href="#8"/><use xlink:href="#9" y="6.513"/><use xlink:href="#10" y="13.026"/><use xlink:href="#11" y="17.368"/><use xlink:href="#12" y="21.71"/><use xlink:href="#13" y="23.881"/><use xlink:href="#14" y="26.052"/><use xlink:href="#15" y="28.223"/><use xlink:href="#16" y="32.565"/><use xlink:href="#17" y="34.736"/><use xlink:href="#18" y="36.907"/><use xlink:href="#19" y="39.078"/><use xlink:href="#17" y="41.249"/><use xlink:href="#20" y="47.762"/><use xlink:href="#4" y="49.933"/></svg><svg x="4320"><use xlink:href="#a"/><use xlink:href="#b" x="20.996" y="49.908"/><use xlink:href="#8"/><use xlink:href="#9" y="6.513"/><use xlink:href="#10" y="13.026"/><use xlink:href="#11" y="17.368"/><use xlink:href="#12" y="21.71"/><use xlink:href="#13" y="23.881"/><use xlink:href="#14" y="26.052"/><use xlink:href="#15" y="28.223"/><use xlink:href="#16" y="32.565"/><use xlink:href="#17" y="34.736"/><use xlink:href="#18" y="36.907"/><use xlink:href="#19" y="39.078"/><use xlink:href="#17" y="41.249"/><use xlink:href="#20" y="47.762"/><use xlink:href="#5" y="49.933"/></svg><svg x="4410"><use xlink:href="#a"/><use xlink:href="#b" x="21.996" y="49.908"/><use xlink:href="#8"/><use xlink:href="#9" y="6.513"/><use xlink:href="#10" y="13.026"/><use xlink:href="#11" y="17.368"/><use xlink:href="#12" y="21.71"/><use xlink:href="#13" y="23.881"/><use xlink:href="#14" y="26.052"/><use xlink:href="#15" y="28.223"/><use xlink:href="#16" y="32.565"/><use xlink:href="#17" y="34.736"/><use xlink:href="#18" y="36.907"/><use xlink:href="#19" y="39.078"/><use xlink:href="#17" y="41.249"/><use xlink:href="#20" y="47.762"/><use xlink:href="#6" y="49.933"/></svg><svg x="4500"><use xlink:href="#a"/><use xlink:href="#b" x="22.996" y="49.908"/><use xlink:href="#8"/><use xlink:href="#9" y="6.513"/><use xlink:href="#10" y="13.026"/><use xlink:href="#11" y="17.368"/><use xlink:href="#12" y="21.71"/><use xlink:href="#13" y="23.881"/><use xlink:href="#14" y="26.052"/><use xlink:href="#15" y="28.223"/><use xlink:href="#16" y="32.565"/><use xlink:href="#17" y="34.736"/><use xlink:href="#18" y="36.907"/><use xlink:href="#19" y="39.078"/><use xlink:href="#17" y="41.249"/><use xlink:href="#20" y="47.762"/><use xlink:href="#7" y="49.933"/></svg><svg x="4590"><use xlink:href="#a"/><use xlink:href="#b" x="23.996" y="49.908"/><use xlink:href="#8"/><use xlink:href="#9" y="6.513"/><use xlink:href="#10" y="13.026"/><use xlink:href="#11" y="17.368"/><use xlink:href="#12" y="21.71"/><use xlink:href="#13" y="23.881"/><use xlink:href="#14" y="26.052"/><use xlink:href="#15" y="28.223"/><use xlink:href="#16" y="32.565"/><use xlink:href="#17" y="34.736"/><use xlink:href="#18" y="36.907"/><use xlink:href="#19" y="39.078"/><use xlink:href="#17" y="41.249"/><use xlink:href="#20" y="47.762"/><use xlink:href="#7" y="49.933"/></svg><svg x="4680"><use xlink:href="#a"/><use xlink:href="#b" x="24.996" y="49.908"/><use xlink:href="#8"/><use xlink:href="#9" y="6.513"/><use xlink:href="#10" y="13.026"/><use xlink:href="#11" y="17.368"/><use xlink:href="#12" y="21.71"/><use xlink:href="#13" y="23.881"/><use xlink:href="#14" y="26.052"/><use xlink:href="#15" y="28.223"/><use xlink:href="#16" y="32.565"/><use xlink:href="#17" y="34.736"/><use xlink:href="#18" y="36.907"/><use xlink:href="#19" y="39.078"/><use xlink:href="#17" y="41.249"/><use xlink:href="#20" y="47.762"/><text y="51.603" class="f">~/P/p/m/p/rush</text><text x="15.03" y="51.603" class="g">❯</text><text x="16.032" y="51.603" class="h">❯</text><text x="17.034" y="51.603" class="i">❯</text><text x="19.038" y="51.603" class="l">rush</text><text x="24.048" y="51.603" class="n">s</text><text x="79.158" y="51.603" class="i">master</text><text x="86.172" y="51.603" class="j">⬆</text><text x="88.176" y="51.603" class="k">◼</text></svg><svg x="4770"><use xlink:href="#a"/><use xlink:href="#b" x="25.996" y="49.908"/><use xlink:href="#8"/><use xlink:href="#9" y="6.513"/><use xlink:href="#10" y="13.026"/><use xlink:href="#11" y="17.368"/><use xlink:href="#12" y="21.71"/><use xlink:href="#13" y="23.881"/><use xlink:href="#14" y="26.052"/><use xlink:href="#15" y="28.223"/><use xlink:href="#16" y="32.565"/><use xlink:href="#17" y="34.736"/><use xlink:href="#18" y="36.907"/><use xlink:href="#19" y="39.078"/><use xlink:href="#17" y="41.249"/><use xlink:href="#20" y="47.762"/><text y="51.603" class="f">~/P/p/m/p/rush</text><text x="15.03" y="51.603" class="g">❯</text><text x="16.032" y="51.603" class="h">❯</text><text x="17.034" y="51.603" class="i">❯</text><text x="19.038" y="51.603" class="l">rush</text><text x="24.048" y="51.603" class="n">st</text><text x="79.158" y="51.603" class="i">master</text><text x="86.172" y="51.603" class="j">⬆</text><text x="88.176" y="51.603" class="k">◼</text></svg><svg x="4860"><use xlink:href="#a"/><use xlink:href="#b" x="26.996" y="49.908"/><use xlink:href="#8"/><use xlink:href="#9" y="6.513"/><use xlink:href="#10" y="13.026"/><use xlink:href="#11" y="17.368"/><use xlink:href="#12" y="21.71"/><use xlink:href="#13" y="23.881"/><use xlink:href="#14" y="26.052"/><use xlink:href="#15" y="28.223"/><use xlink:href="#16" y="32.565"/><use xlink:href="#17" y="34.736"/><use xlink:href="#18" y="36.907"/><use xlink:href="#19" y="39.078"/><use xlink:href="#17" y="41.249"/><use xlink:href="#20" y="47.762"/><text y="51.603" class="f">~/P/p/m/p/rush</text><text x="15.03" y="51.603" class="g">❯</text><text x="16.032" y="51.603" class="h">❯</text><text x="17.034" y="51.603" class="i">❯</text><text x="19.038" y="51.603" class="l">rush</text><text x="24.048" y="51.603" class="n">sta</text><text x="79.158" y="51.603" class="i">master</text><text x="86.172" y="51.603" class="j">⬆</text><text x="88.176" y="51.603" class="k">◼</text></svg><svg x="4950"><use xlink:href="#a"/><use xlink:href="#b" x="27.996" y="49.908"/><use xlink:href="#8"/><use xlink:href="#9" y="6.513"/><use xlink:href="#10" y="13.026"/><use xlink:href="#11" y="17.368"/><use xlink:href="#12" y="21.71"/><use xlink:href="#13" y="23.881"/><use xlink:href="#14" y="26.052"/><use xlink:href="#15" y="28.223"/><use xlink:href="#16" y="32.565"/><use xlink:href="#17" y="34.736"/><use xlink:href="#18" y="36.907"/><use xlink:href="#19" y="39.078"/><use xlink:href="#17" y="41.249"/><use xlink:href="#20" y="47.762"/><text y="51.603" class="f">~/P/p/m/p/rush</text><text x="15.03" y="51.603" class="g">❯</text><text x="16.032" y="51.603" class="h">❯</text><text x="17.034" y="51.603" class="i">❯</text><text x="19.038" y="51.603" class="l">rush</text><text x="24.048" y="51.603" class="n">star</text><text x="79.158" y="51.603" class="i">master</text><text x="86.172" y="51.603" class="j">⬆</text><text x="88.176" y="51.603" class="k">◼</text></svg><svg x="5040"><use xlink:href="#a"/><use xlink:href="#b" x="28.996" y="49.908"/><use xlink:href="#8"/><use xlink:href="#9" y="6.513"/><use xlink:href="#10" y="13.026"/><use xlink:href="#11" y="17.368"/><use xlink:href="#12" y="21.71"/><use xlink:href="#13" y="23.881"/><use xlink:href="#14" y="26.052"/><use xlink:href="#15" y="28.223"/><use xlink:href="#16" y="32.565"/><use xlink:href="#17" y="34.736"/><use xlink:href="#18" y="36.907"/><use xlink:href="#19" y="39.078"/><use xlink:href="#17" y="41.249"/><use xlink:href="#20" y="47.762"/><use xlink:href="#21" y="49.933"/></svg><svg x="5130"><use xlink:href="#a"/><use xlink:href="#b" x="28.996" y="49.908"/><use xlink:href="#8"/><use xlink:href="#9" y="6.513"/><use xlink:href="#10" y="13.026"/><use xlink:href="#11" y="17.368"/><use xlink:href="#12" y="21.71"/><use xlink:href="#13" y="23.881"/><use xlink:href="#14" y="26.052"/><use xlink:href="#15" y="28.223"/><use xlink:href="#16" y="32.565"/><use xlink:href="#17" y="34.736"/><use xlink:href="#18" y="36.907"/><use xlink:href="#19" y="39.078"/><use xlink:href="#17" y="41.249"/><use xlink:href="#20" y="47.762"/><use xlink:href="#21" y="49.933"/></svg><svg x="5220"><use xlink:href="#a"/><use xlink:href="#b" x="28.996" y="49.908"/><use xlink:href="#8"/><use xlink:href="#9" y="6.513"/><use xlink:href="#10" y="13.026"/><use xlink:href="#11" y="17.368"/><use xlink:href="#12" y="21.71"/><use xlink:href="#13" y="23.881"/><use xlink:href="#14" y="26.052"/><use xlink:href="#15" y="28.223"/><use xlink:href="#16" y="32.565"/><use xlink:href="#17" y="34.736"/><use xlink:href="#18" y="36.907"/><use xlink:href="#19" y="39.078"/><use xlink:href="#17" y="41.249"/><use xlink:href="#20" y="47.762"/><use xlink:href="#21" y="49.933"/></svg><svg x="5310"><use xlink:href="#a"/><use xlink:href="#b" x="-.004" y="52.079"/><use xlink:href="#8"/><use xlink:href="#9" y="6.513"/><use xlink:href="#10" y="13.026"/><use xlink:href="#11" y="17.368"/><use xlink:href="#12" y="21.71"/><use xlink:href="#13" y="23.881"/><use xlink:href="#14" y="26.052"/><use xlink:href="#15" y="28.223"/><use xlink:href="#16" y="32.565"/><use xlink:href="#17" y="34.736"/><use xlink:href="#18" y="36.907"/><use xlink:href="#19" y="39.078"/><use xlink:href="#17" y="41.249"/><use xlink:href="#20" y="47.762"/><use xlink:href="#21" y="49.933"/></svg><svg x="5400"><use xlink:href="#a"/><use xlink:href="#b" x="-.004" y="52.079"/><use xlink:href="#8"/><use xlink:href="#9" y="6.513"/><use xlink:href="#10" y="13.026"/><use xlink:href="#11" y="17.368"/><use xlink:href="#12" y="21.71"/><use xlink:href="#13" y="23.881"/><use xlink:href="#14" y="26.052"/><use xlink:href="#15" y="28.223"/><use xlink:href="#16" y="32.565"/><use xlink:href="#17" y="34.736"/><use xlink:href="#18" y="36.907"/><use xlink:href="#19" y="39.078"/><use xlink:href="#17" y="41.249"/><use xlink:href="#20" y="47.762"/><use xlink:href="#21" y="49.933"/></svg><svg x="5490"><use xlink:href="#a"/><use xlink:href="#b" x="-.004" y="54.25"/><use xlink:href="#8"/><use xlink:href="#9" y="6.513"/><use xlink:href="#10" y="13.026"/><use xlink:href="#11" y="17.368"/><use xlink:href="#12" y="21.71"/><use xlink:href="#13" y="23.881"/><use xlink:href="#14" y="26.052"/><use xlink:href="#15" y="28.223"/><use xlink:href="#16" y="32.565"/><use xlink:href="#17" y="34.736"/><use xlink:href="#18" y="36.907"/><use xlink:href="#19" y="39.078"/><use xlink:href="#17" y="41.249"/><use xlink:href="#20" y="47.762"/><use xlink:href="#21" y="49.933"/></svg><svg x="5580"><use xlink:href="#a"/><use xlink:href="#b" x="-.004" y="60.763"/><use xlink:href="#8"/><use xlink:href="#9" y="6.513"/><use xlink:href="#10" y="13.026"/><use xlink:href="#11" y="17.368"/><use xlink:href="#12" y="21.71"/><use xlink:href="#13" y="23.881"/><use xlink:href="#14" y="26.052"/><use xlink:href="#15" y="28.223"/><use xlink:href="#16" y="32.565"/><use xlink:href="#17" y="34.736"/><use xlink:href="#18" y="36.907"/><use xlink:href="#19" y="39.078"/><use xlink:href="#17" y="41.249"/><use xlink:href="#20" y="47.762"/><use xlink:href="#21" y="49.933"/><use xlink:href="#9" y="56.446"/></svg><svg x="5670"><use xlink:href="#a"/><use xlink:href="#b" x="-.004" y="62.934"/><use xlink:href="#8"/><use xlink:href="#9" y="6.513"/><use xlink:href="#10" y="13.026"/><use xlink:href="#11" y="17.368"/><use xlink:href="#12" y="21.71"/><use xlink:href="#13" y="23.881"/><use xlink:href="#14" y="26.052"/><use xlink:href="#15" y="28.223"/><use xlink:href="#16" y="32.565"/><use xlink:href="#17" y="34.736"/><use xlink:href="#18" y="36.907"/><use xlink:href="#19" y="39.078"/><use xlink:href="#17" y="41.249"/><use xlink:href="#20" y="47.762"/><use xlink:href="#21" y="49.933"/><use xlink:href="#9" y="56.446"/></svg><svg x="5760"><use xlink:href="#a"/><use xlink:href="#b" x="-.004" y="65.105"/><use xlink:href="#9" y="4.342"/><use xlink:href="#10" y="10.855"/><use xlink:href="#11" y="15.197"/><use xlink:href="#12" y="19.539"/><use xlink:href="#13" y="21.71"/><use xlink:href="#14" y="23.881"/><use xlink:href="#15" y="26.052"/><use xlink:href="#16" y="30.394"/><use xlink:href="#17" y="32.565"/><use xlink:href="#18" y="34.736"/><use xlink:href="#19" y="36.907"/><use xlink:href="#17" y="39.078"/><use xlink:href="#20" y="45.591"/><use xlink:href="#21" y="47.762"/><use xlink:href="#9" y="54.275"/><use xlink:href="#22" y="60.788"/></svg><svg x="5850"><use xlink:href="#a"/><use xlink:href="#b" x="-.004" y="65.105"/><use xlink:href="#9" y="2.171"/><use xlink:href="#10" y="8.684"/><use xlink:href="#11" y="13.026"/><use xlink:href="#12" y="17.368"/><use xlink:href="#13" y="19.539"/><use xlink:href="#14" y="21.71"/><use xlink:href="#15" y="23.881"/><use xlink:href="#16" y="28.223"/><use xlink:href="#17" y="30.394"/><use xlink:href="#18" y="32.565"/><use xlink:href="#19" y="34.736"/><use xlink:href="#17" y="36.907"/><use xlink:href="#20" y="43.42"/><use xlink:href="#21" y="45.591"/><use xlink:href="#9" y="52.104"/><use xlink:href="#22" y="58.617"/><use xlink:href="#23" y="62.959"/></svg><svg x="5940"><use xlink:href="#a"/><use xlink:href="#b" x="-.004" y="65.105"/><use xlink:href="#9" y="2.171"/><use xlink:href="#10" y="8.684"/><use xlink:href="#11" y="13.026"/><use xlink:href="#12" y="17.368"/><use xlink:href="#13" y="19.539"/><use xlink:href="#14" y="21.71"/><use xlink:href="#15" y="23.881"/><use xlink:href="#16" y="28.223"/><use xlink:href="#17" y="30.394"/><use xlink:href="#18" y="32.565"/><use xlink:href="#19" y="34.736"/><use xlink:href="#17" y="36.907"/><use xlink:href="#20" y="43.42"/><use xlink:href="#21" y="45.591"/><use xlink:href="#9" y="52.104"/><use xlink:href="#22" y="58.617"/><use xlink:href="#23" y="62.959"/></svg><svg x="6030"><use xlink:href="#a"/><use xlink:href="#b" x="-.004" y="65.105"/><use xlink:href="#9" y="2.171"/><use xlink:href="#10" y="8.684"/><use xlink:href="#11" y="13.026"/><use xlink:href="#12" y="17.368"/><use xlink:href="#13" y="19.539"/><use xlink:href="#14" y="21.71"/><use xlink:href="#15" y="23.881"/><use xlink:href="#16" y="28.223"/><use xlink:href="#17" y="30.394"/><use xlink:href="#18" y="32.565"/><use xlink:href="#19" y="34.736"/><use xlink:href="#17" y="36.907"/><use xlink:href="#20" y="43.42"/><use xlink:href="#21" y="45.591"/><use xlink:href="#9" y="52.104"/><use xlink:href="#22" y="58.617"/><use xlink:href="#23" y="62.959"/></svg><svg x="6120"><use xlink:href="#a"/><use xlink:href="#b" x="-.004" y="65.105"/><use xlink:href="#9" y="2.171"/><use xlink:href="#10" y="8.684"/><use xlink:href="#11" y="13.026"/><use xlink:href="#12" y="17.368"/><use xlink:href="#13" y="19.539"/><use xlink:href="#14" y="21.71"/><use xlink:href="#15" y="23.881"/><use xlink:href="#16" y="28.223"/><use xlink:href="#17" y="30.394"/><use xlink:href="#18" y="32.565"/><use xlink:href="#19" y="34.736"/><use xlink:href="#17" y="36.907"/><use xlink:href="#20" y="43.42"/><use xlink:href="#21" y="45.591"/><use xlink:href="#9" y="52.104"/><use xlink:href="#22" y="58.617"/><use xlink:href="#23" y="62.959"/></svg><svg x="6210"><use xlink:href="#a"/><use xlink:href="#b" x="18.996" y="65.105"/><use xlink:href="#9" y="2.171"/><use xlink:href="#10" y="8.684"/><use xlink:href="#11" y="13.026"/><use xlink:href="#12" y="17.368"/><use xlink:href="#13" y="19.539"/><use xlink:href="#14" y="21.71"/><use xlink:href="#15" y="23.881"/><use xlink:href="#16" y="28.223"/><use xlink:href="#17" y="30.394"/><use xlink:href="#18" y="32.565"/><use xlink:href="#19" y="34.736"/><use xlink:href="#17" y="36.907"/><use xlink:href="#20" y="43.42"/><use xlink:href="#21" y="45.591"/><use xlink:href="#9" y="52.104"/><use xlink:href="#22" y="58.617"/><use xlink:href="#23" y="62.959"/><use xlink:href="#3" y="65.13"/></svg><svg x="6300"><use xlink:href="#a"/><use xlink:href="#b" x="18.996" y="65.105"/><use xlink:href="#9" y="2.171"/><use xlink:href="#10" y="8.684"/><use xlink:href="#11" y="13.026"/><use xlink:href="#12" y="17.368"/><use xlink:href="#13" y="19.539"/><use xlink:href="#14" y="21.71"/><use xlink:href="#15" y="23.881"/><use xlink:href="#16" y="28.223"/><use xlink:href="#17" y="30.394"/><use xlink:href="#18" y="32.565"/><use xlink:href="#19" y="34.736"/><use xlink:href="#17" y="36.907"/><use xlink:href="#20" y="43.42"/><use xlink:href="#21" y="45.591"/><use xlink:href="#9" y="52.104"/><use xlink:href="#22" y="58.617"/><use xlink:href="#23" y="62.959"/><use xlink:href="#3" y="65.13"/></svg><svg x="6390"><use xlink:href="#a"/><use xlink:href="#b" x="18.996" y="65.105"/><use xlink:href="#9" y="2.171"/><use xlink:href="#10" y="8.684"/><use xlink:href="#11" y="13.026"/><use xlink:href="#12" y="17.368"/><use xlink:href="#13" y="19.539"/><use xlink:href="#14" y="21.71"/><use xlink:href="#15" y="23.881"/><use xlink:href="#16" y="28.223"/><use xlink:href="#17" y="30.394"/><use xlink:href="#18" y="32.565"/><use xlink:href="#19" y="34.736"/><use xlink:href="#17" y="36.907"/><use xlink:href="#20" y="43.42"/><use xlink:href="#21" y="45.591"/><use xlink:href="#9" y="52.104"/><use xlink:href="#22" y="58.617"/><use xlink:href="#23" y="62.959"/><use xlink:href="#3" y="65.13"/></svg><svg x="6480"><use xlink:href="#a"/><use xlink:href="#b" x="18.996" y="65.105"/><use xlink:href="#9" y="2.171"/><use xlink:href="#10" y="8.684"/><use xlink:href="#11" y="13.026"/><use xlink:href="#12" y="17.368"/><use xlink:href="#13" y="19.539"/><use xlink:href="#14" y="21.71"/><use xlink:href="#15" y="23.881"/><use xlink:href="#16" y="28.223"/><use xlink:href="#17" y="30.394"/><use xlink:href="#18" y="32.565"/><use xlink:href="#19" y="34.736"/><use xlink:href="#17" y="36.907"/><use xlink:href="#20" y="43.42"/><use xlink:href="#21" y="45.591"/><use xlink:href="#9" y="52.104"/><use xlink:href="#22" y="58.617"/><use xlink:href="#23" y="62.959"/><use xlink:href="#3" y="65.13"/></svg><svg x="6570"><use xlink:href="#a"/><use xlink:href="#b" x="18.996" y="65.105"/><use xlink:href="#9" y="2.171"/><use xlink:href="#10" y="8.684"/><use xlink:href="#11" y="13.026"/><use xlink:href="#12" y="17.368"/><use xlink:href="#13" y="19.539"/><use xlink:href="#14" y="21.71"/><use xlink:href="#15" y="23.881"/><use xlink:href="#16" y="28.223"/><use xlink:href="#17" y="30.394"/><use xlink:href="#18" y="32.565"/><use xlink:href="#19" y="34.736"/><use xlink:href="#17" y="36.907"/><use xlink:href="#20" y="43.42"/><use xlink:href="#21" y="45.591"/><use xlink:href="#9" y="52.104"/><use xlink:href="#22" y="58.617"/><use xlink:href="#23" y="62.959"/><use xlink:href="#3" y="65.13"/></svg><svg x="6660"><use xlink:href="#a"/><use xlink:href="#b" x="-.004" y="65.105"/><use xlink:href="#9"/><use xlink:href="#10" y="6.513"/><use xlink:href="#11" y="10.855"/><use xlink:href="#12" y="15.197"/><use xlink:href="#13" y="17.368"/><use xlink:href="#14" y="19.539"/><use xlink:href="#15" y="21.71"/><use xlink:href="#16" y="26.052"/><use xlink:href="#17" y="28.223"/><use xlink:href="#18" y="30.394"/><use xlink:href="#19" y="32.565"/><use xlink:href="#17" y="34.736"/><use xlink:href="#20" y="41.249"/><use xlink:href="#21" y="43.42"/><use xlink:href="#9" y="49.933"/><use xlink:href="#22" y="56.446"/><use xlink:href="#23" y="60.788"/><use xlink:href="#3" y="62.959"/></svg></svg></g></g></svg></svg>